<svg width="20" height="22" viewBox="0 0 20 22" fill="none" xmlns="http://www.w3.org/2000/svg">
<path d="M2.14437 8.84C2.1846 8.33881 2.41213 7.87115 2.78165 7.53017C3.15117 7.18918 3.63556 6.9999 4.13837 7H16.1964C16.6992 6.9999 17.1836 7.18918 17.5531 7.53017C17.9226 7.87115 18.1501 8.33881 18.1904 8.84L18.9934 18.84C19.0155 19.1152 18.9803 19.392 18.8902 19.6529C18.8001 19.9139 18.6569 20.1533 18.4697 20.3562C18.2825 20.5592 18.0553 20.7211 17.8024 20.8319C17.5495 20.9427 17.2764 20.9999 17.0004 21H3.33437C3.05829 20.9999 2.78522 20.9427 2.53235 20.8319C2.27948 20.7211 2.05228 20.5592 1.86507 20.3562C1.67785 20.1533 1.53467 19.9139 1.44454 19.6529C1.35441 19.392 1.31929 19.1152 1.34137 18.84L2.14437 8.84Z" stroke="#191919" stroke-linecap="round" stroke-linejoin="round"/>
<path d="M14.1675 10V5C14.1675 3.93913 13.7461 2.92172 12.9959 2.17157C12.2458 1.42143 11.2283 1 10.1675 1C9.10661 1 8.0892 1.42143 7.33905 2.17157C6.58891 2.92172 6.16748 3.93913 6.16748 5V10" stroke="#191919" stroke-linecap="round" stroke-linejoin="round"/>
</svg>
