<svg width="32" height="34" viewBox="0 0 32 34" fill="none" xmlns="http://www.w3.org/2000/svg">
<mask id="path-1-inside-1_504_5113" fill="white">
<path fill-rule="evenodd" clip-rule="evenodd" d="M12.2434 8.07111L12.2432 8.07132C11.7819 8.47359 11.3161 8.87976 10.8895 9.32692C10.5508 9.71449 10.3498 10.2033 10.318 10.717C10.292 15.0815 10.2944 19.4469 10.2968 23.8117C10.2973 24.7147 10.2978 25.6177 10.298 26.5206C10.298 26.6626 10.3098 26.8037 10.3227 26.9592L10.3228 26.9596C10.3254 26.9917 10.3282 27.0243 10.3309 27.0578C10.3355 27.1136 10.3611 27.1656 10.4024 27.2035C10.4437 27.2413 10.4977 27.2623 10.5537 27.2621C11.0478 27.2368 11.543 27.2411 12.0366 27.2749C12.751 27.3492 12.9753 27.132 12.971 26.3806C12.9504 21.9704 12.9528 17.5595 12.9552 13.1484C12.9562 11.4408 12.9571 9.7331 12.9567 8.02543V7.92542C12.9555 7.88359 12.9424 7.84296 12.919 7.80831C12.8955 7.77365 12.8627 7.7464 12.8243 7.72975C12.7859 7.7131 12.7436 7.70775 12.7022 7.71432C12.6609 7.72089 12.6223 7.73911 12.591 7.76684C12.4759 7.86841 12.3598 7.96964 12.2434 8.07111Z"/>
</mask>
<path fill-rule="evenodd" clip-rule="evenodd" d="M12.2434 8.07111L12.2432 8.07132C11.7819 8.47359 11.3161 8.87976 10.8895 9.32692C10.5508 9.71449 10.3498 10.2033 10.318 10.717C10.292 15.0815 10.2944 19.4469 10.2968 23.8117C10.2973 24.7147 10.2978 25.6177 10.298 26.5206C10.298 26.6626 10.3098 26.8037 10.3227 26.9592L10.3228 26.9596C10.3254 26.9917 10.3282 27.0243 10.3309 27.0578C10.3355 27.1136 10.3611 27.1656 10.4024 27.2035C10.4437 27.2413 10.4977 27.2623 10.5537 27.2621C11.0478 27.2368 11.543 27.2411 12.0366 27.2749C12.751 27.3492 12.9753 27.132 12.971 26.3806C12.9504 21.9704 12.9528 17.5595 12.9552 13.1484C12.9562 11.4408 12.9571 9.7331 12.9567 8.02543V7.92542C12.9555 7.88359 12.9424 7.84296 12.919 7.80831C12.8955 7.77365 12.8627 7.7464 12.8243 7.72975C12.7859 7.7131 12.7436 7.70775 12.7022 7.71432C12.6609 7.72089 12.6223 7.73911 12.591 7.76684C12.4759 7.86841 12.3598 7.96964 12.2434 8.07111Z" fill="#2E2E2E"/>
<path d="M0.787547 21.3389L0.783711 22.1749H0.783944L0.787547 21.3389ZM0.578966 21.6375L1.36356 21.3488L1.36262 21.3462L0.578966 21.6375ZM1.26471 23.4447L2.03176 23.1122L2.0317 23.112L1.26471 23.4447ZM17.5355 33.0023L17.4472 32.171L17.447 32.171L17.5355 33.0023ZM30.1546 24.5091L30.8847 24.9165L30.8857 24.9147L30.1546 24.5091ZM29.9946 23.2862L29.3918 23.8654L29.3926 23.8662L29.9946 23.2862ZM23.1372 16.143L23.7366 15.5602L23.7057 15.5284L23.6716 15.5001L23.1372 16.143ZM22.3557 15.9344L22.2127 15.1107L22.1887 15.1148L22.1651 15.1204L22.3557 15.9344ZM14.7911 17.7616L14.9816 18.5756L14.9831 18.5753L14.7911 17.7616ZM14.1982 18.5445L13.3622 18.5497L13.3622 18.5507L14.1982 18.5445ZM14.2096 26.6877L13.3736 26.6886L13.3736 26.701L13.374 26.7133L14.2096 26.6877ZM14.2425 27.0578L15.0722 26.9553L15.071 26.9455L15.0695 26.9357L14.2425 27.0578ZM14.4625 27.2521V26.416L14.4616 26.416L14.4625 27.2521ZM17.6983 27.2521L17.7031 26.416H17.6983V27.2521ZM17.9155 27.4306L17.0961 27.5968L17.097 27.601L17.9155 27.4306ZM5.98065 28.4807L6.03884 27.6466L6.02919 27.6461L5.98065 28.4807ZM5.77207 28.2592L6.6081 28.2607V28.2592H5.77207ZM5.77207 27.4392L4.93604 27.4288V27.4392H5.77207ZM6.00065 27.2192L5.97915 28.0549L5.9899 28.0552H6.00065V27.2192ZM8.77221 27.2192L8.7776 26.3832H8.77221V27.2192ZM8.99508 26.9978H8.15905V26.9978L8.99508 26.9978ZM8.99508 11.8299H9.83111L9.8311 11.827L8.99508 11.8299ZM8.61077 11.677L8.00518 11.1007L8.00486 11.101L8.61077 11.677ZM1.03899 19.6417L1.64005 20.2228L1.64491 20.2177L1.03899 19.6417ZM1.19185 20.0146L1.17169 20.8504L1.18177 20.8506H1.19185V20.0146ZM5.97779 20.0146L5.98753 20.8505L5.99135 20.8505L5.97779 20.0146ZM5.98494 21.3589L5.94609 22.194L5.94707 22.1941L5.98494 21.3589ZM3.77055 21.3518L3.76694 22.1878H3.77055V21.3518ZM24.2501 15.5258L24.8555 14.9492L23.4141 13.4358V15.5258H24.2501ZM30.689 22.2861L30.0835 22.8627L30.0891 22.8684L30.689 22.2861ZM31.0575 22.2147L31.8315 22.5307L31.8321 22.5294L31.0575 22.2147ZM27.2974 5.62246L26.7042 6.21164L26.7071 6.21448L27.2974 5.62246ZM8.27504 2.8809L8.6771 3.6139L8.67767 3.61359L8.27504 2.8809ZM0.128945 18.3773L-0.697858 18.5012L-0.697553 18.5032L0.128945 18.3773ZM0.531821 18.4716L1.21661 18.9512L1.22172 18.9439L1.22667 18.9365L0.531821 18.4716ZM0.738974 18.2059L0.132852 17.6301L0.125623 17.6377L0.118587 17.6455L0.738974 18.2059ZM13.301 5.02671L13.9052 5.60454L13.9158 5.59347L13.926 5.58202L13.301 5.02671ZM14.1582 4.45526L13.9408 3.64798L13.9131 3.65544L13.886 3.66479L14.1582 4.45526ZM18.797 3.30235L18.9964 4.11425L18.998 4.11385L18.797 3.30235ZM23.8843 3.79666L23.5308 4.55439L23.5435 4.56005L23.8843 3.79666ZM25.6987 14.0529L26.2541 14.6778L26.2663 14.6669L26.2782 14.6555L25.6987 14.0529ZM24.2701 15.1958L23.7823 14.5168L23.7735 14.5231L23.7649 14.5297L24.2701 15.1958ZM24.2501 15.5315L23.6694 16.1329L25.0861 17.5009V15.5315H24.2501ZM14.9211 5.24815H15.7571V4.18559L14.7244 4.43559L14.9211 5.24815ZM14.8054 5.61103L14.1746 6.1597L14.1792 6.16504L14.1839 6.17031L14.8054 5.61103ZM14.8182 5.62531L14.1968 6.1846L14.2047 6.19335L14.2128 6.20187L14.8182 5.62531ZM22.9772 14.2143L23.5859 13.6412L23.584 13.6393L22.9772 14.2143ZM23.8429 14.25L23.3913 13.5464L23.3898 13.5474L23.8429 14.25ZM26.6573 9.29977L25.8228 9.35011L25.8229 9.35159L26.6573 9.29977ZM22.9972 4.47097L22.6869 5.24731L22.6869 5.24731L22.9972 4.47097ZM18.3084 4.40811L18.0785 3.6043L18.0744 3.60548L18.3084 4.40811ZM14.9211 5.25387H14.085V6.31414L15.1161 6.06684L14.9211 5.25387ZM21.79 14.7L21.1849 15.2769L22.626 16.7884V14.7H21.79ZM14.6468 7.20825L15.2519 6.63131L15.247 6.62633L14.6468 7.20825ZM14.2639 7.36111L13.4279 7.35263V7.36111H14.2639ZM14.2639 16.6216H13.4279L13.4279 16.6245L14.2639 16.6216ZM14.5396 16.8373L14.7379 17.6495L14.7406 17.6488L14.5396 16.8373ZM21.6828 15.0686L21.4924 14.2545L21.4819 14.2571L21.6828 15.0686ZM21.79 14.6943L22.3823 14.1043L20.9539 12.6705V14.6943H21.79ZM17.5046 3.61625L17.7008 4.42891L17.5046 3.61625ZM15.7106 5.06694L15.902 5.88077L15.7106 5.06694ZM0.791384 20.5029C0.620348 20.5021 0.451696 20.5428 0.299881 20.6215L1.06937 22.106C0.981142 22.1517 0.883124 22.1754 0.783711 22.1749L0.791384 20.5029ZM0.299881 20.6215C0.148065 20.7002 0.017581 20.8146 -0.0803658 20.9548L1.29036 21.9123C1.23343 21.9938 1.1576 22.0603 1.06937 22.106L0.299881 20.6215ZM-0.0803658 20.9548C-0.178306 21.095 -0.240777 21.2568 -0.262428 21.4265L1.39618 21.6382C1.38359 21.7368 1.34729 21.8308 1.29036 21.9123L-0.0803658 20.9548ZM-0.262428 21.4265C-0.284081 21.5961 -0.264266 21.7685 -0.204684 21.9288L1.36262 21.3462C1.39724 21.4394 1.40876 21.5396 1.39618 21.6382L-0.262428 21.4265ZM-0.205629 21.9262C0.0378012 22.5877 0.246604 23.1985 0.497729 23.7774L2.0317 23.112C1.80566 22.5909 1.62587 22.0616 1.36356 21.3488L-0.205629 21.9262ZM0.497668 23.7773C3.31903 30.2849 10.0579 34.6389 17.624 33.8337L17.447 32.171C10.6496 32.8944 4.57922 28.988 2.03176 23.1122L0.497668 23.7773ZM17.6238 33.8337C23.6148 33.1974 27.9998 30.0849 30.8847 24.9165L29.4246 24.1016C26.7864 28.828 22.8624 31.5958 17.4472 32.171L17.6238 33.8337ZM30.8857 24.9147C31.0802 24.5641 31.1571 24.1603 31.1051 23.7628L29.4472 23.9797C29.4528 24.0224 29.4445 24.0658 29.4236 24.1034L30.8857 24.9147ZM31.1051 23.7628C31.0531 23.3652 30.8749 22.9948 30.5967 22.7061L29.3926 23.8662C29.4225 23.8972 29.4416 23.937 29.4472 23.9797L31.1051 23.7628ZM30.5975 22.7069C28.3179 20.3347 26.0369 17.9262 23.7366 15.5602L22.5377 16.7257C24.8348 19.0885 27.0997 21.4802 29.3918 23.8654L30.5975 22.7069ZM23.6716 15.5001C23.4712 15.3334 23.2369 15.2123 22.985 15.145L22.5538 16.7605C22.5717 16.7653 22.5884 16.7739 22.6027 16.7858L23.6716 15.5001ZM22.985 15.145C22.7331 15.0778 22.4696 15.0661 22.2127 15.1107L22.4987 16.7581C22.517 16.7549 22.5358 16.7557 22.5538 16.7605L22.985 15.145ZM22.1651 15.1204C19.6816 15.7019 17.0612 16.3669 14.599 16.9479L14.9831 18.5753C17.5697 17.9648 19.9781 17.3498 22.5463 16.7484L22.1651 15.1204ZM14.6005 16.9476C14.2802 17.0225 13.8998 17.1717 13.639 17.5336C13.3898 17.8793 13.3604 18.2712 13.3622 18.5497L15.0342 18.5393C15.034 18.5007 15.0351 18.4723 15.0368 18.4518C15.0385 18.4313 15.0404 18.4222 15.0405 18.4215C15.0406 18.4211 15.0385 18.4311 15.0314 18.448C15.0241 18.4654 15.0126 18.4875 14.9956 18.5111C14.9784 18.5349 14.9594 18.555 14.9408 18.571C14.9226 18.5866 14.9083 18.5953 14.902 18.5987C14.8962 18.602 14.8981 18.6002 14.9116 18.5954C14.9252 18.5905 14.9476 18.5836 14.9816 18.5756L14.6005 16.9476ZM13.3622 18.5507C13.3821 21.2617 13.3707 23.9681 13.3736 26.6886L15.0456 26.6869C15.0428 23.9785 15.0542 21.2561 15.0342 18.5383L13.3622 18.5507ZM13.374 26.7133C13.3788 26.8695 13.3926 27.0253 13.4154 27.1798L15.0695 26.9357C15.0562 26.8451 15.0481 26.7537 15.0452 26.6622L13.374 26.7133ZM13.4127 27.1602C13.4444 27.4165 13.5687 27.6523 13.7623 27.8232L14.8691 26.5699C14.9816 26.6693 15.0538 26.8063 15.0722 26.9553L13.4127 27.1602ZM13.7623 27.8232C13.9558 27.9942 14.2052 28.0884 14.4634 28.0881L14.4616 26.416C14.6116 26.4159 14.7566 26.4706 14.8691 26.5699L13.7623 27.8232ZM14.4625 28.0881H17.6983V26.416H14.4625V28.0881ZM17.6936 28.0881C17.5527 28.0873 17.4164 28.038 17.3076 27.9485L18.3697 26.6571C18.1818 26.5025 17.9464 26.4174 17.7031 26.416L17.6936 28.0881ZM17.3076 27.9485C17.1988 27.859 17.1241 27.7348 17.0961 27.5968L18.7349 27.2645C18.6865 27.0261 18.5576 26.8116 18.3697 26.6571L17.3076 27.9485ZM17.097 27.601C17.1226 27.724 17.1415 27.8223 17.1545 27.9031C17.1676 27.9851 17.1723 28.0348 17.1734 28.0627C17.1739 28.0756 17.1734 28.0785 17.1737 28.0736C17.1741 28.0688 17.1755 28.0524 17.1813 28.0279C17.1873 28.0029 17.198 27.9683 17.2173 27.9284C17.237 27.8878 17.2636 27.846 17.2978 27.8062C17.332 27.7666 17.3686 27.7351 17.4037 27.7109C17.4381 27.6872 17.4681 27.6725 17.4888 27.6639C17.5092 27.6554 17.5222 27.6521 17.5243 27.6516C17.5264 27.6511 17.5212 27.6524 17.5065 27.6545C17.475 27.659 17.4228 27.6637 17.3388 27.6666C17.2558 27.6695 17.1566 27.6704 17.0326 27.6704V29.3424C17.2733 29.3424 17.5276 29.3406 17.743 29.3098C17.947 29.2806 18.3008 29.2036 18.5643 28.898C18.8336 28.5856 18.8527 28.2176 18.8442 27.9978C18.8354 27.7704 18.7863 27.5117 18.734 27.2603L17.097 27.601ZM17.0326 27.6704H6.5321V29.3424H17.0326V27.6704ZM6.5321 27.6704C6.38192 27.6704 6.22837 27.6599 6.03884 27.6467L5.92246 29.3147C6.10151 29.3272 6.3137 29.3424 6.5321 29.3424V27.6704ZM6.02919 27.6461C6.18594 27.6552 6.33324 27.7239 6.44088 27.8382L5.22375 28.9847C5.40897 29.1813 5.66242 29.2996 5.93211 29.3153L6.02919 27.6461ZM6.44088 27.8382C6.54853 27.9525 6.60836 28.1037 6.6081 28.2607L4.93604 28.2578C4.93558 28.528 5.03853 28.788 5.22375 28.9847L6.44088 27.8382ZM6.6081 28.2592V27.4392H4.93604V28.2592H6.6081ZM6.60803 27.4496C6.60702 27.5308 6.58989 27.611 6.55763 27.6856L5.02315 27.0214C4.96744 27.1501 4.93786 27.2885 4.9361 27.4288L6.60803 27.4496ZM6.55763 27.6856C6.52539 27.76 6.47866 27.8274 6.42013 27.8838L5.26061 26.6791C5.15954 26.7763 5.07884 26.8927 5.02315 27.0214L6.55763 27.6856ZM6.42013 27.8838C6.36159 27.9401 6.29247 27.9842 6.21681 28.0136L5.61172 26.4549C5.48103 26.5056 5.36167 26.5818 5.26061 26.6791L6.42013 27.8838ZM6.21681 28.0136C6.14112 28.043 6.06034 28.057 5.97915 28.0549L6.02215 26.3834C5.88195 26.3798 5.74244 26.4041 5.61172 26.4549L6.21681 28.0136ZM6.00065 28.0552H8.77221V26.3832H6.00065V28.0552ZM8.76682 28.0552C8.90627 28.0561 9.04451 28.0294 9.17359 27.9767L8.54119 26.4288C8.61621 26.3982 8.69655 26.3827 8.7776 26.3832L8.76682 28.0552ZM9.17359 27.9767C9.30266 27.9239 9.42004 27.8462 9.51897 27.7479L8.34046 26.5618C8.39796 26.5047 8.46618 26.4595 8.54119 26.4288L9.17359 27.9767ZM9.51897 27.7479C9.61791 27.6496 9.6964 27.5327 9.74996 27.404L8.20621 26.7617C8.23733 26.6869 8.28295 26.6189 8.34046 26.5618L9.51897 27.7479ZM9.74996 27.404C9.80353 27.2753 9.83111 27.1372 9.83111 26.9977L8.15905 26.9978C8.15905 26.9167 8.17508 26.8365 8.20621 26.7617L9.74996 27.404ZM9.83111 26.9978V11.8299H8.15905V26.9978H9.83111ZM9.8311 11.827C9.83036 11.6156 9.76639 11.4093 9.64743 11.2346L8.26541 12.1758C8.19652 12.0747 8.15948 11.9552 8.15905 11.8328L9.8311 11.827ZM9.64743 11.2346C9.52847 11.06 9.35996 10.9249 9.16358 10.8468L8.54558 12.4004C8.43187 12.3552 8.33429 12.277 8.26541 12.1758L9.64743 11.2346ZM9.16358 10.8468C8.96721 10.7686 8.75195 10.7511 8.54551 10.7963L8.90349 12.4296C8.78395 12.4558 8.6593 12.4457 8.54558 12.4004L9.16358 10.8468ZM8.54551 10.7963C8.33907 10.8416 8.15089 10.9476 8.00518 11.1007L9.21636 12.2534C9.13199 12.3421 9.02303 12.4034 8.90349 12.4296L8.54551 10.7963ZM8.00486 11.101L0.43307 19.0657L1.64491 20.2177L9.21669 12.2531L8.00486 11.101ZM0.437951 19.0606C0.295326 19.2081 0.198767 19.3939 0.160069 19.5954L1.80212 19.9108C1.77955 20.0283 1.72322 20.1368 1.64002 20.2228L0.437951 19.0606ZM0.160069 19.5954C0.121371 19.7969 0.142209 20.0054 0.22004 20.1952L1.76714 19.561C1.81254 19.6717 1.82469 19.7933 1.80212 19.9108L0.160069 19.5954ZM0.22004 20.1952C0.297875 20.3851 0.42933 20.5481 0.598326 20.6645L1.54647 19.2872C1.64505 19.3551 1.72173 19.4502 1.76714 19.561L0.22004 20.1952ZM0.598326 20.6645C0.767344 20.7808 0.966587 20.8454 1.17169 20.8504L1.21201 19.1788C1.33165 19.1817 1.44787 19.2193 1.54647 19.2872L0.598326 20.6645ZM1.19185 20.8506C2.77385 20.8506 4.38749 20.8692 5.98753 20.8505L5.96805 19.1786C4.37937 19.1971 2.80143 19.1785 1.19185 19.1785V20.8506ZM5.99135 20.8505C6.05847 20.8494 6.04113 20.8596 5.98254 20.8364C5.95014 20.8236 5.90821 20.8018 5.86458 20.7664C5.82046 20.7307 5.78451 20.6893 5.75732 20.6469C5.70578 20.5667 5.70094 20.5073 5.70297 20.5221C5.70514 20.538 5.70784 20.5777 5.70621 20.6698L7.378 20.6994C7.38094 20.5338 7.39717 20.1062 7.16438 19.7436C6.86098 19.271 6.35589 19.1723 5.96424 19.1786L5.99135 20.8505ZM5.70621 20.6698C5.7043 20.7774 5.70207 20.8261 5.69806 20.8576C5.69408 20.8888 5.69535 20.8358 5.74141 20.7576C5.76676 20.7146 5.80283 20.6687 5.85101 20.6274C5.89904 20.5863 5.94738 20.5598 5.98748 20.5438C6.06023 20.5148 6.08912 20.5268 6.0228 20.5237L5.94707 22.1941C6.35729 22.2127 6.88373 22.1127 7.18207 21.6063C7.29957 21.4068 7.33924 21.2059 7.35668 21.0691C7.37411 20.9325 7.37634 20.7933 7.378 20.6994L5.70621 20.6698ZM6.02378 20.5238C5.26182 20.4883 4.46704 20.5157 3.77055 20.5157V22.1878C4.55126 22.1878 5.2337 22.1609 5.94609 22.194L6.02378 20.5238ZM3.77415 20.5158L0.791151 20.5029L0.783944 22.1749L3.76694 22.1878L3.77415 20.5158ZM23.6447 16.1024L30.0836 22.8627L31.2943 21.7095L24.8555 14.9492L23.6447 16.1024ZM30.0891 22.8684C30.2118 22.9948 30.364 23.0887 30.5321 23.1415L31.0333 21.5463C31.1302 21.5767 31.218 21.6309 31.2888 21.7038L30.0891 22.8684ZM30.5321 23.1415C30.7001 23.1943 30.8787 23.2043 31.0516 23.1708L30.7335 21.5293C30.8333 21.51 30.9363 21.5158 31.0333 21.5463L30.5321 23.1415ZM31.0516 23.1708C31.2245 23.1373 31.3864 23.0613 31.5226 22.9495L30.4618 21.657C30.5404 21.5925 30.6338 21.5486 30.7335 21.5293L31.0516 23.1708ZM31.5226 22.9495C31.6588 22.8377 31.7649 22.6938 31.8315 22.5307L30.2836 21.8986C30.322 21.8046 30.3832 21.7215 30.4618 21.657L31.5226 22.9495ZM31.8321 22.5294C33.8193 17.638 33.0299 10.1577 27.8877 5.03043L26.7071 6.21448C31.3481 10.842 32.0302 17.5994 30.283 21.9L31.8321 22.5294ZM27.8905 5.03328C25.3192 2.44466 21.9753 0.763113 18.364 0.242637L18.1255 1.8976C21.3775 2.36629 24.3887 3.88055 26.7042 6.21163L27.8905 5.03328ZM18.364 0.242637C14.7527 -0.277839 11.0701 0.39103 7.87241 2.14821L8.67767 3.61359C11.5572 2.03123 14.8734 1.4289 18.1255 1.8976L18.364 0.242637ZM7.87298 2.14789C1.02996 5.90134 -1.48079 13.2761 -0.697856 18.5012L0.955745 18.2535C0.267178 13.6581 2.50236 7.00079 8.6771 3.6139L7.87298 2.14789ZM-0.697553 18.5032C-0.6657 18.7124 -0.571942 18.9071 -0.428376 19.0625L0.799574 17.9276C0.882705 18.0176 0.936997 18.1304 0.955442 18.2515L-0.697553 18.5032ZM-0.428376 19.0625C-0.284815 19.2178 -0.0980126 19.3266 0.107965 19.3748L0.489001 17.7468C0.60828 17.7747 0.716447 17.8377 0.799574 17.9276L-0.428376 19.0625ZM0.107965 19.3748C0.313929 19.423 0.52961 19.4084 0.727208 19.3329L0.130424 17.771C0.244845 17.7273 0.369736 17.7188 0.489001 17.7468L0.107965 19.3748ZM0.727208 19.3329C0.924805 19.2574 1.09526 19.1245 1.21661 18.9512L-0.152967 17.992C-0.0827003 17.8917 0.0160047 17.8147 0.130424 17.771L0.727208 19.3329ZM1.22667 18.9365C1.26673 18.8767 1.31108 18.8198 1.35936 18.7663L0.118587 17.6455C0.0161035 17.7589 -0.0780147 17.8797 -0.163028 18.0067L1.22667 18.9365ZM1.3451 18.7817C5.52465 14.3822 9.71135 9.9898 13.9052 5.60454L12.6968 4.44889C8.50167 8.83548 4.31369 13.2292 0.132852 17.6301L1.3451 18.7817ZM13.926 5.58202C14.0624 5.42844 14.2361 5.31262 14.4304 5.24573L13.886 3.66479C13.42 3.82524 13.0033 4.10304 12.676 4.47141L13.926 5.58202ZM18.998 4.11385C20.5149 3.7381 22.1147 3.89355 23.5309 4.55428L24.2378 3.03903C22.4752 2.21665 20.4839 2.02317 18.5959 2.49084L18.998 4.11385ZM23.5435 4.56005C27.2521 6.21595 28.0328 10.6487 25.1193 13.4502L26.2782 14.6555C30.0535 11.0253 29.0084 5.16897 24.2252 3.03327L23.5435 4.56005ZM25.1434 13.4279C24.7088 13.8141 24.2545 14.1776 23.7823 14.5168L24.7579 15.8747C25.2769 15.5018 25.7763 15.1023 26.2541 14.6778L25.1434 13.4279ZM23.7649 14.5297C23.6433 14.6219 23.5431 14.7393 23.4712 14.8739L24.946 15.6618C24.9042 15.7401 24.8459 15.8083 24.7753 15.8619L23.7649 14.5297ZM23.4712 14.8739C23.3993 15.0084 23.3574 15.157 23.3483 15.3093L25.0174 15.4087C25.0121 15.4973 24.9878 15.5836 24.946 15.6618L23.4712 14.8739ZM23.3483 15.3093C23.3392 15.4616 23.3632 15.6141 23.4186 15.7563L24.9765 15.149C25.0087 15.2316 25.0227 15.3202 25.0174 15.4087L23.3483 15.3093ZM23.4186 15.7563C23.4741 15.8985 23.5596 16.0269 23.6694 16.1329L24.8308 14.9301C24.8946 14.9917 24.9443 15.0663 24.9765 15.149L23.4186 15.7563ZM25.0861 15.5315V15.5258H23.4141V15.5315H25.0861ZM14.7244 4.43559C14.5477 4.47837 14.3849 4.56593 14.2519 4.68984L15.3914 5.91349C15.3143 5.98524 15.2201 6.03594 15.1178 6.06071L14.7244 4.43559ZM14.2519 4.68984C14.1188 4.81375 14.0199 4.96983 13.9647 5.14305L15.5577 5.65106C15.5257 5.75136 15.4684 5.84174 15.3914 5.91349L14.2519 4.68984ZM13.9647 5.14305C13.9094 5.31627 13.8997 5.5008 13.9365 5.67886L15.574 5.34079C15.5953 5.4439 15.5897 5.55075 15.5577 5.65106L13.9647 5.14305ZM13.9365 5.67886C13.9732 5.85691 14.0552 6.02251 14.1746 6.1597L15.4362 5.06236C15.5052 5.1418 15.5527 5.23769 15.574 5.34079L13.9365 5.67886ZM14.1839 6.17031L14.1968 6.1846L15.4396 5.06603L15.4268 5.05174L14.1839 6.17031ZM14.2128 6.20187C16.9334 9.05864 19.6526 11.9211 22.3703 14.7893L23.584 13.6393C20.8653 10.77 18.1452 7.90654 15.4236 5.04876L14.2128 6.20187ZM22.3684 14.7874C22.6497 15.0861 23.0267 15.298 23.487 15.2629C23.8628 15.2343 24.1612 15.0396 24.2961 14.9526L23.3898 13.5474C23.3267 13.5881 23.297 13.6042 23.2827 13.6108C23.2707 13.6163 23.3007 13.6002 23.3599 13.5957C23.3906 13.5933 23.4254 13.5944 23.462 13.6009C23.4986 13.6073 23.5301 13.6179 23.5552 13.6293C23.6038 13.6516 23.6127 13.6697 23.5859 13.6412L22.3684 14.7874ZM24.2945 14.9536C26.2645 13.6891 27.6534 11.8509 27.4918 9.24796L25.8229 9.35159C25.9356 11.166 25.0272 12.4965 23.3913 13.5464L24.2945 14.9536ZM27.4919 9.24944C27.4112 7.9122 26.9878 6.75712 26.2497 5.80961C25.5155 4.86713 24.5035 4.17262 23.3074 3.69463L22.6869 5.24731C23.668 5.63937 24.4147 6.17492 24.9306 6.83715C25.4426 7.49436 25.7606 8.31867 25.8228 9.35011L27.4919 9.24944ZM23.3074 3.69464C21.5337 2.98582 19.7651 3.122 18.0785 3.60431L18.5382 5.21192C20.009 4.79133 21.3719 4.72179 22.6869 5.24731L23.3074 3.69464ZM15.7571 5.25387V5.24815H14.085V5.25387H15.7571ZM13.7927 8.02543C13.7927 8.02536 13.7927 8.0253 13.7927 8.02524C13.7927 8.02517 13.7927 8.02511 13.7927 8.02504C13.7927 8.02498 13.7927 8.02492 13.7927 8.02485C13.7927 8.02479 13.7927 8.02472 13.7927 8.02466C13.7927 8.02459 13.7927 8.02453 13.7927 8.02447C13.7927 8.0244 13.7927 8.02434 13.7927 8.02427C13.7927 8.02421 13.7927 8.02415 13.7927 8.02408C13.7927 8.02402 13.7927 8.02395 13.7927 8.02389C13.7927 8.02382 13.7927 8.02376 13.7927 8.0237C13.7927 8.02363 13.7927 8.02357 13.7927 8.0235C13.7927 8.02344 13.7927 8.02337 13.7927 8.02331C13.7927 8.02325 13.7927 8.02318 13.7927 8.02312C13.7927 8.02305 13.7927 8.02299 13.7927 8.02293C13.7927 8.02286 13.7927 8.0228 13.7927 8.02273C13.7927 8.02267 13.7927 8.0226 13.7927 8.02254C13.7927 8.02248 13.7927 8.02241 13.7927 8.02235C13.7927 8.02228 13.7927 8.02222 13.7927 8.02216C13.7927 8.02209 13.7927 8.02203 13.7927 8.02196C13.7927 8.0219 13.7927 8.02183 13.7927 8.02177C13.7927 8.02171 13.7927 8.02164 13.7927 8.02158C13.7927 8.02151 13.7927 8.02145 13.7927 8.02139C13.7927 8.02132 13.7927 8.02126 13.7927 8.02119C13.7927 8.02113 13.7927 8.02106 13.7927 8.021C13.7927 8.02094 13.7927 8.02087 13.7927 8.02081C13.7927 8.02074 13.7927 8.02068 13.7927 8.02062C13.7927 8.02055 13.7927 8.02049 13.7927 8.02042C13.7927 8.02036 13.7927 8.02029 13.7927 8.02023C13.7927 8.02017 13.7927 8.0201 13.7927 8.02004C13.7927 8.01997 13.7927 8.01991 13.7927 8.01985C13.7927 8.01978 13.7927 8.01972 13.7927 8.01965C13.7927 8.01959 13.7927 8.01952 13.7927 8.01946C13.7927 8.0194 13.7927 8.01933 13.7927 8.01927C13.7927 8.0192 13.7927 8.01914 13.7927 8.01907C13.7927 8.01901 13.7927 8.01895 13.7927 8.01888C13.7927 8.01882 13.7927 8.01875 13.7927 8.01869C13.7927 8.01863 13.7927 8.01856 13.7927 8.0185C13.7927 8.01843 13.7927 8.01837 13.7927 8.0183C13.7927 8.01824 13.7927 8.01818 13.7927 8.01811C13.7927 8.01805 13.7927 8.01798 13.7927 8.01792C13.7927 8.01785 13.7927 8.01779 13.7927 8.01773C13.7927 8.01766 13.7927 8.0176 13.7927 8.01753C13.7927 8.01747 13.7927 8.01741 13.7927 8.01734C13.7927 8.01728 13.7927 8.01721 13.7927 8.01715C13.7927 8.01708 13.7927 8.01702 13.7927 8.01696C13.7927 8.01689 13.7927 8.01683 13.7927 8.01676C13.7927 8.0167 13.7927 8.01663 13.7927 8.01657C13.7927 8.01651 13.7927 8.01644 13.7927 8.01638C13.7927 8.01631 13.7927 8.01625 13.7927 8.01619C13.7927 8.01612 13.7927 8.01606 13.7927 8.01599C13.7927 8.01593 13.7927 8.01586 13.7927 8.0158C13.7927 8.01574 13.7927 8.01567 13.7927 8.01561C13.7927 8.01554 13.7927 8.01548 13.7927 8.01542C13.7927 8.01535 13.7927 8.01529 13.7927 8.01522C13.7927 8.01516 13.7927 8.01509 13.7927 8.01503C13.7927 8.01497 13.7927 8.0149 13.7927 8.01484C13.7927 8.01477 13.7927 8.01471 13.7927 8.01464C13.7927 8.01458 13.7927 8.01452 13.7927 8.01445C13.7927 8.01439 13.7927 8.01432 13.7927 8.01426C13.7927 8.0142 13.7927 8.01413 13.7927 8.01407C13.7927 8.014 13.7927 8.01394 13.7927 8.01387C13.7927 8.01381 13.7927 8.01375 13.7927 8.01368C13.7927 8.01362 13.7927 8.01355 13.7927 8.01349C13.7927 8.01342 13.7927 8.01336 13.7927 8.0133C13.7927 8.01323 13.7927 8.01317 13.7927 8.0131C13.7927 8.01304 13.7927 8.01298 13.7927 8.01291C13.7927 8.01285 13.7927 8.01278 13.7927 8.01272C13.7927 8.01265 13.7927 8.01259 13.7927 8.01253C13.7927 8.01246 13.7927 8.0124 13.7927 8.01233C13.7927 8.01227 13.7927 8.0122 13.7927 8.01214C13.7927 8.01208 13.7927 8.01201 13.7927 8.01195C13.7927 8.01188 13.7927 8.01182 13.7927 8.01175C13.7927 8.01169 13.7927 8.01163 13.7927 8.01156C13.7927 8.0115 13.7927 8.01143 13.7927 8.01137C13.7927 8.01131 13.7927 8.01124 13.7927 8.01118C13.7927 8.01111 13.7927 8.01105 13.7927 8.01098C13.7927 8.01092 13.7927 8.01086 13.7927 8.01079C13.7927 8.01073 13.7927 8.01066 13.7927 8.0106C13.7927 8.01053 13.7927 8.01047 13.7927 8.01041C13.7927 8.01034 13.7927 8.01028 13.7927 8.01021C13.7927 8.01015 13.7927 8.01008 13.7927 8.01002C13.7927 8.00996 13.7927 8.00989 13.7927 8.00983C13.7927 8.00976 13.7927 8.0097 13.7927 8.00963C13.7927 8.00957 13.7927 8.00951 13.7927 8.00944C13.7927 8.00938 13.7927 8.00931 13.7927 8.00925C13.7927 8.00919 13.7927 8.00912 13.7927 8.00906C13.7927 8.00899 13.7927 8.00893 13.7927 8.00886C13.7927 8.0088 13.7927 8.00874 13.7927 8.00867C13.7927 8.00861 13.7927 8.00854 13.7927 8.00848C13.7927 8.00841 13.7927 8.00835 13.7927 8.00829C13.7927 8.00822 13.7927 8.00816 13.7927 8.00809C13.7927 8.00803 13.7927 8.00796 13.7927 8.0079C13.7927 8.00784 13.7927 8.00777 13.7927 8.00771C13.7927 8.00764 13.7927 8.00758 13.7927 8.00751C13.7927 8.00745 13.7927 8.00739 13.7927 8.00732C13.7927 8.00726 13.7927 8.00719 13.7927 8.00713C13.7927 8.00706 13.7927 8.007 13.7927 8.00694C13.7927 8.00687 13.7927 8.00681 13.7927 8.00674C13.7927 8.00668 13.7927 8.00661 13.7927 8.00655C13.7927 8.00649 13.7927 8.00642 13.7927 8.00636C13.7927 8.00629 13.7927 8.00623 13.7927 8.00616C13.7927 8.0061 13.7927 8.00604 13.7927 8.00597C13.7927 8.00591 13.7927 8.00584 13.7927 8.00578C13.7927 8.00571 13.7927 8.00565 13.7927 8.00559C13.7927 8.00552 13.7927 8.00546 13.7927 8.00539C13.7927 8.00533 13.7927 8.00526 13.7927 8.0052C13.7927 8.00514 13.7927 8.00507 13.7927 8.00501C13.7927 8.00494 13.7927 8.00488 13.7927 8.00481C13.7927 8.00475 13.7927 8.00469 13.7927 8.00462C13.7927 8.00456 13.7927 8.00449 13.7927 8.00443C13.7927 8.00436 13.7927 8.0043 13.7927 8.00424C13.7927 8.00417 13.7927 8.00411 13.7927 8.00404C13.7927 8.00398 13.7927 8.00391 13.7927 8.00385C13.7927 8.00379 13.7927 8.00372 13.7927 8.00366C13.7927 8.00359 13.7927 8.00353 13.7927 8.00346C13.7927 8.0034 13.7927 8.00334 13.7927 8.00327C13.7927 8.00321 13.7927 8.00314 13.7927 8.00308C13.7927 8.00301 13.7927 8.00295 13.7927 8.00289C13.7927 8.00282 13.7927 8.00276 13.7927 8.00269C13.7927 8.00263 13.7927 8.00256 13.7927 8.0025C13.7927 8.00243 13.7927 8.00237 13.7927 8.00231C13.7927 8.00224 13.7927 8.00218 13.7927 8.00211C13.7927 8.00205 13.7927 8.00198 13.7927 8.00192C13.7927 8.00186 13.7927 8.00179 13.7927 8.00173C13.7927 8.00166 13.7927 8.0016 13.7927 8.00153C13.7927 8.00147 13.7927 8.00141 13.7927 8.00134C13.7927 8.00128 13.7927 8.00121 13.7927 8.00115C13.7927 8.00108 13.7927 8.00102 13.7927 8.00096C13.7927 8.00089 13.7927 8.00083 13.7927 8.00076C13.7927 8.0007 13.7927 8.00063 13.7927 8.00057C13.7927 8.0005 13.7927 8.00044 13.7927 8.00038C13.7927 8.00031 13.7927 8.00025 13.7927 8.00018C13.7927 8.00012 13.7927 8.00005 13.7927 7.99999C13.7927 7.99993 13.7927 7.99986 13.7927 7.9998C13.7927 7.99973 13.7927 7.99967 13.7927 7.9996C13.7927 7.99954 13.7927 7.99948 13.7927 7.99941C13.7927 7.99935 13.7927 7.99928 13.7927 7.99922C13.7927 7.99915 13.7927 7.99909 13.7927 7.99902C13.7927 7.99896 13.7927 7.9989 13.7927 7.99883C13.7927 7.99877 13.7927 7.9987 13.7927 7.99864C13.7927 7.99857 13.7927 7.99851 13.7927 7.99845C13.7927 7.99838 13.7927 7.99832 13.7927 7.99825C13.7927 7.99819 13.7927 7.99812 13.7927 7.99806C13.7927 7.99799 13.7927 7.99793 13.7927 7.99787C13.7927 7.9978 13.7927 7.99774 13.7927 7.99767C13.7927 7.99761 13.7927 7.99754 13.7927 7.99748C13.7927 7.99741 13.7927 7.99735 13.7927 7.99729C13.7927 7.99722 13.7927 7.99716 13.7927 7.99709C13.7927 7.99703 13.7927 7.99696 13.7927 7.9969C13.7927 7.99683 13.7927 7.99677 13.7927 7.99671C13.7927 7.99664 13.7927 7.99658 13.7927 7.99651C13.7927 7.99645 13.7927 7.99638 13.7927 7.99632C13.7927 7.99625 13.7927 7.99619 13.7927 7.99613C13.7927 7.99606 13.7927 7.996 13.7927 7.99593C13.7927 7.99587 13.7927 7.9958 13.7927 7.99574C13.7927 7.99568 13.7927 7.99561 13.7927 7.99555C13.7927 7.99548 13.7927 7.99542 13.7927 7.99535C13.7927 7.99529 13.7927 7.99522 13.7927 7.99516C13.7927 7.9951 13.7927 7.99503 13.7927 7.99497C13.7927 7.9949 13.7927 7.99484 13.7927 7.99477C13.7927 7.99471 13.7927 7.99464 13.7927 7.99458C13.7927 7.99452 13.7927 7.99445 13.7927 7.99439C13.7927 7.99432 13.7927 7.99426 13.7927 7.99419C13.7927 7.99413 13.7927 7.99406 13.7927 7.994C13.7927 7.99394 13.7927 7.99387 13.7927 7.99381C13.7927 7.99374 13.7927 7.99368 13.7927 7.99361C13.7927 7.99355 13.7927 7.99348 13.7927 7.99342C13.7927 7.99335 13.7927 7.99329 13.7927 7.99323C13.7927 7.99316 13.7927 7.9931 13.7927 7.99303C13.7927 7.99297 13.7927 7.9929 13.7927 7.99284C13.7927 7.99277 13.7927 7.99271 13.7927 7.99265C13.7927 7.99258 13.7927 7.99252 13.7927 7.99245C13.7927 7.99239 13.7927 7.99232 13.7927 7.99226C13.7927 7.99219 13.7927 7.99213 13.7927 7.99207C13.7927 7.992 13.7927 7.99194 13.7927 7.99187C13.7927 7.99181 13.7927 7.99174 13.7927 7.99168C13.7927 7.99161 13.7927 7.99155 13.7927 7.99148C13.7927 7.99142 13.7927 7.99136 13.7927 7.99129C13.7927 7.99123 13.7927 7.99116 13.7927 7.9911C13.7927 7.99103 13.7927 7.99097 13.7927 7.9909C13.7927 7.99084 13.7927 7.99078 13.7927 7.99071C13.7927 7.99065 13.7927 7.99058 13.7927 7.99052C13.7927 7.99045 13.7927 7.99039 13.7927 7.99032C13.7927 7.99026 13.7927 7.99019 13.7927 7.99013C13.7927 7.99007 13.7927 7.99 13.7927 7.98994C13.7927 7.98987 13.7927 7.98981 13.7927 7.98974C13.7927 7.98968 13.7927 7.98961 13.7927 7.98955C13.7927 7.98948 13.7927 7.98942 13.7927 7.98936C13.7927 7.98929 13.7927 7.98923 13.7927 7.98916C13.7927 7.9891 13.7927 7.98903 13.7927 7.98897C13.7927 7.9889 13.7927 7.98884 13.7927 7.98877C13.7927 7.98871 13.7927 7.98865 13.7927 7.98858C13.7927 7.98852 13.7927 7.98845 13.7927 7.98839C13.7927 7.98832 13.7927 7.98826 13.7927 7.98819C13.7927 7.98813 13.7927 7.98806 13.7927 7.988C13.7927 7.98794 13.7927 7.98787 13.7927 7.98781C13.7927 7.98774 13.7927 7.98768 13.7927 7.98761C13.7927 7.98755 13.7927 7.98748 13.7927 7.98742C13.7927 7.98735 13.7927 7.98729 13.7927 7.98722C13.7927 7.98716 13.7927 7.9871 13.7927 7.98703C13.7927 7.98697 13.7927 7.9869 13.7927 7.98684C13.7927 7.98677 13.7927 7.98671 13.7927 7.98664C13.7927 7.98658 13.7927 7.98651 13.7927 7.98645C13.7927 7.98638 13.7927 7.98632 13.7927 7.98626C13.7927 7.98619 13.7927 7.98613 13.7927 7.98606C13.7927 7.986 13.7927 7.98593 13.7927 7.98587C13.7927 7.9858 13.7927 7.98574 13.7927 7.98567C13.7927 7.98561 13.7927 7.98554 13.7927 7.98548C13.7927 7.98542 13.7927 7.98535 13.7927 7.98529C13.7927 7.98522 13.7927 7.98516 13.7927 7.98509C13.7927 7.98503 13.7927 7.98496 13.7927 7.9849C13.7927 7.98483 13.7927 7.98477 13.7927 7.9847C13.7927 7.98464 13.7927 7.98457 13.7927 7.98451C13.7927 7.98445 13.7927 7.98438 13.7927 7.98432C13.7927 7.98425 13.7927 7.98419 13.7927 7.98412C13.7927 7.98406 13.7927 7.98399 13.7927 7.98393C13.7927 7.98386 13.7927 7.9838 13.7927 7.98373C13.7927 7.98367 13.7927 7.9836 13.7927 7.98354C13.7927 7.98348 13.7927 7.98341 13.7927 7.98335C13.7927 7.98328 13.7927 7.98322 13.7927 7.98315C13.7927 7.98309 13.7927 7.98302 13.7927 7.98296C13.7927 7.98289 13.7927 7.98283 13.7927 7.98276C13.7927 7.9827 13.7927 7.98263 13.7927 7.98257C13.7927 7.98251 13.7927 7.98244 13.7927 7.98238C13.7927 7.98231 13.7927 7.98225 13.7927 7.98218C13.7927 7.98212 13.7927 7.98205 13.7927 7.98199C13.7927 7.98192 13.7927 7.98186 13.7927 7.98179C13.7927 7.98173 13.7927 7.98166 13.7927 7.9816C13.7927 7.98153 13.7927 7.98147 13.7927 7.98141C13.7927 7.98134 13.7927 7.98128 13.7927 7.98121C13.7927 7.98115 13.7927 7.98108 13.7927 7.98102C13.7927 7.98095 13.7927 7.98089 13.7927 7.98082C13.7927 7.98076 13.7927 7.98069 13.7927 7.98063C13.7927 7.98056 13.7927 7.9805 13.7927 7.98043C13.7927 7.98037 13.7927 7.9803 13.7927 7.98024C13.7927 7.98018 13.7927 7.98011 13.7927 7.98005C13.7927 7.97998 13.7927 7.97992 13.7927 7.97985C13.7927 7.97979 13.7927 7.97972 13.7927 7.97966C13.7927 7.97959 13.7927 7.97953 13.7927 7.97946C13.7927 7.9794 13.7927 7.97933 13.7927 7.97927C13.7927 7.9792 13.7927 7.97914 13.7927 7.97907C13.7927 7.97901 13.7927 7.97894 13.7927 7.97888C13.7927 7.97881 13.7927 7.97875 13.7927 7.97868C13.7927 7.97862 13.7927 7.97856 13.7927 7.97849C13.7927 7.97843 13.7927 7.97836 13.7927 7.9783C13.7927 7.97823 13.7927 7.97817 13.7927 7.9781C13.7927 7.97804 13.7927 7.97797 13.7927 7.97791C13.7927 7.97784 13.7927 7.97778 13.7927 7.97771C13.7927 7.97765 13.7927 7.97758 13.7927 7.97752C13.7927 7.97745 13.7927 7.97739 13.7927 7.97732C13.7927 7.97726 13.7927 7.97719 13.7927 7.97713C13.7927 7.97706 13.7927 7.977 13.7927 7.97693C13.7927 7.97687 13.7927 7.9768 13.7927 7.97674C13.7927 7.97668 13.7927 7.97661 13.7927 7.97655C13.7927 7.97648 13.7927 7.97642 13.7927 7.97635C13.7927 7.97629 13.7927 7.97622 13.7927 7.97616C13.7927 7.97609 13.7927 7.97603 13.7927 7.97596C13.7927 7.9759 13.7927 7.97583 13.7927 7.97577C13.7927 7.9757 13.7927 7.97564 13.7927 7.97557C13.7927 7.97551 13.7927 7.97544 13.7927 7.97538C13.7927 7.97531 13.7927 7.97525 13.7927 7.97518C13.7927 7.97512 13.7927 7.97505 13.7927 7.97499C13.7927 7.97492 13.7927 7.97486 13.7927 7.97479C13.7927 7.97473 13.7927 7.97466 13.7927 7.9746C13.7927 7.97453 13.7927 7.97447 13.7927 7.9744C13.7927 7.97434 13.7927 7.97427 13.7927 7.97421C13.7927 7.97414 13.7927 7.97408 13.7927 7.97401C13.7927 7.97395 13.7927 7.97388 13.7927 7.97382C13.7927 7.97375 13.7927 7.97369 13.7927 7.97363C13.7927 7.97356 13.7927 7.9735 13.7927 7.97343C13.7927 7.97337 13.7927 7.9733 13.7927 7.97324C13.7927 7.97317 13.7927 7.97311 13.7927 7.97304C13.7927 7.97298 13.7927 7.97291 13.7927 7.97285C13.7927 7.97278 13.7927 7.97272 13.7927 7.97265C13.7927 7.97259 13.7927 7.97252 13.7927 7.97246C13.7927 7.97239 13.7927 7.97233 13.7927 7.97226C13.7927 7.9722 13.7927 7.97213 13.7927 7.97207C13.7927 7.972 13.7927 7.97194 13.7927 7.97187C13.7927 7.97181 13.7927 7.97174 13.7927 7.97168C13.7927 7.97161 13.7927 7.97155 13.7927 7.97148C13.7927 7.97142 13.7927 7.97135 13.7927 7.97129C13.7927 7.97122 13.7927 7.97116 13.7927 7.97109C13.7927 7.97103 13.7927 7.97096 13.7927 7.9709C13.7927 7.97083 13.7927 7.97077 13.7927 7.9707C13.7927 7.97064 13.7927 7.97057 13.7927 7.97051C13.7927 7.97044 13.7927 7.97038 13.7927 7.97031C13.7927 7.97025 13.7927 7.97018 13.7927 7.97012C13.7927 7.97005 13.7927 7.96999 13.7927 7.96992C13.7927 7.96986 13.7927 7.96979 13.7927 7.96973C13.7927 7.96966 13.7927 7.96959 13.7927 7.96953C13.7927 7.96946 13.7927 7.9694 13.7927 7.96933C13.7927 7.96927 13.7927 7.9692 13.7927 7.96914C13.7927 7.96907 13.7927 7.96901 13.7927 7.96894C13.7927 7.96888 13.7927 7.96881 13.7927 7.96875C13.7927 7.96868 13.7927 7.96862 13.7927 7.96855C13.7927 7.96849 13.7927 7.96842 13.7927 7.96836C13.7927 7.96829 13.7927 7.96823 13.7927 7.96816C13.7927 7.9681 13.7927 7.96803 13.7927 7.96797C13.7927 7.9679 13.7927 7.96784 13.7927 7.96777C13.7927 7.96771 13.7927 7.96764 13.7927 7.96758C13.7927 7.96751 13.7927 7.96745 13.7927 7.96738C13.7927 7.96732 13.7927 7.96725 13.7927 7.96719C13.7927 7.96712 13.7927 7.96706 13.7927 7.96699C13.7927 7.96693 13.7927 7.96686 13.7927 7.9668C13.7927 7.96673 13.7927 7.96666 13.7927 7.9666C13.7927 7.96653 13.7927 7.96647 13.7927 7.9664C13.7927 7.96634 13.7927 7.96627 13.7927 7.96621C13.7927 7.96614 13.7927 7.96608 13.7927 7.96601C13.7927 7.96595 13.7927 7.96588 13.7927 7.96582C13.7927 7.96575 13.7927 7.96569 13.7927 7.96562C13.7927 7.96556 13.7927 7.96549 13.7927 7.96543C13.7927 7.96536 13.7927 7.9653 13.7927 7.96523C13.7927 7.96517 13.7927 7.9651 13.7927 7.96504C13.7927 7.96497 13.7927 7.9649 13.7927 7.96484C13.7927 7.96477 13.7927 7.96471 13.7927 7.96464C13.7927 7.96458 13.7927 7.96451 13.7927 7.96445C13.7927 7.96438 13.7927 7.96432 13.7927 7.96425C13.7927 7.96419 13.7927 7.96412 13.7927 7.96406C13.7927 7.96399 13.7927 7.96393 13.7927 7.96386C13.7927 7.9638 13.7927 7.96373 13.7927 7.96367C13.7927 7.9636 13.7927 7.96353 13.7927 7.96347C13.7927 7.9634 13.7927 7.96334 13.7927 7.96327C13.7927 7.96321 13.7927 7.96314 13.7927 7.96308C13.7927 7.96301 13.7927 7.96295 13.7927 7.96288C13.7927 7.96282 13.7927 7.96275 13.7927 7.96269C13.7927 7.96262 13.7927 7.96256 13.7927 7.96249C13.7927 7.96242 13.7927 7.96236 13.7927 7.96229C13.7927 7.96223 13.7927 7.96216 13.7927 7.9621C13.7927 7.96203 13.7927 7.96197 13.7927 7.9619C13.7927 7.96184 13.7927 7.96177 13.7927 7.96171C13.7927 7.96164 13.7927 7.96158 13.7927 7.96151C13.7927 7.96145 13.7927 7.96138 13.7927 7.96131C13.7927 7.96125 13.7927 7.96118 13.7927 7.96112C13.7927 7.96105 13.7927 7.96099 13.7927 7.96092C13.7927 7.96086 13.7927 7.96079 13.7927 7.96073C13.7927 7.96066 13.7927 7.9606 13.7927 7.96053C13.7927 7.96046 13.7927 7.9604 13.7927 7.96033C13.7927 7.96027 13.7927 7.9602 13.7927 7.96014C13.7927 7.96007 13.7927 7.96001 13.7927 7.95994C13.7927 7.95988 13.7927 7.95981 13.7927 7.95975C13.7927 7.95968 13.7927 7.95961 13.7927 7.95955C13.7927 7.95948 13.7927 7.95942 13.7927 7.95935C13.7927 7.95929 13.7927 7.95922 13.7927 7.95916C13.7927 7.95909 13.7927 7.95903 13.7927 7.95896C13.7927 7.9589 13.7927 7.95883 13.7927 7.95876C13.7927 7.9587 13.7927 7.95863 13.7927 7.95857C13.7927 7.9585 13.7927 7.95844 13.7927 7.95837C13.7927 7.95831 13.7927 7.95824 13.7927 7.95818C13.7927 7.95811 13.7927 7.95804 13.7927 7.95798C13.7927 7.95791 13.7927 7.95785 13.7927 7.95778C13.7927 7.95772 13.7927 7.95765 13.7927 7.95759C13.7927 7.95752 13.7927 7.95746 13.7927 7.95739C13.7927 7.95732 13.7927 7.95726 13.7927 7.95719C13.7927 7.95713 13.7927 7.95706 13.7927 7.957C13.7927 7.95693 13.7927 7.95687 13.7927 7.9568C13.7927 7.95673 13.7927 7.95667 13.7927 7.9566C13.7927 7.95654 13.7927 7.95647 13.7927 7.95641C13.7927 7.95634 13.7927 7.95628 13.7927 7.95621C13.7927 7.95614 13.7927 7.95608 13.7927 7.95601C13.7927 7.95595 13.7927 7.95588 13.7927 7.95582C13.7927 7.95575 13.7927 7.95569 13.7927 7.95562C13.7927 7.95555 13.7927 7.95549 13.7927 7.95542C13.7927 7.95536 13.7927 7.95529 13.7927 7.95523C13.7927 7.95516 13.7927 7.9551 13.7927 7.95503C13.7927 7.95496 13.7927 7.9549 13.7927 7.95483C13.7927 7.95477 13.7927 7.9547 13.7927 7.95464C13.7927 7.95457 13.7927 7.95451 13.7927 7.95444C13.7927 7.95437 13.7927 7.95431 13.7927 7.95424C13.7927 7.95418 13.7927 7.95411 13.7927 7.95405C13.7927 7.95398 13.7927 7.95392 13.7927 7.95385C13.7927 7.95378 13.7927 7.95372 13.7927 7.95365C13.7927 7.95359 13.7927 7.95352 13.7927 7.95346C13.7927 7.95339 13.7927 7.95332 13.7927 7.95326C13.7927 7.95319 13.7927 7.95313 13.7927 7.95306C13.7927 7.953 13.7927 7.95293 13.7927 7.95286C13.7927 7.9528 13.7927 7.95273 13.7927 7.95267C13.7927 7.9526 13.7927 7.95254 13.7927 7.95247C13.7927 7.9524 13.7927 7.95234 13.7927 7.95227C13.7927 7.95221 13.7927 7.95214 13.7927 7.95208C13.7927 7.95201 13.7927 7.95195 13.7927 7.95188C13.7927 7.95181 13.7927 7.95175 13.7927 7.95168C13.7927 7.95162 13.7927 7.95155 13.7927 7.95149C13.7927 7.95142 13.7927 7.95135 13.7927 7.95129C13.7927 7.95122 13.7927 7.95116 13.7927 7.95109C13.7927 7.95103 13.7927 7.95096 13.7927 7.95089C13.7927 7.95083 13.7927 7.95076 13.7927 7.9507C13.7927 7.95063 13.7927 7.95056 13.7927 7.9505C13.7927 7.95043 13.7927 7.95037 13.7927 7.9503C13.7927 7.95024 13.7927 7.95017 13.7927 7.9501C13.7927 7.95004 13.7927 7.94997 13.7927 7.94991C13.7927 7.94984 13.7927 7.94978 13.7927 7.94971C13.7927 7.94964 13.7927 7.94958 13.7927 7.94951C13.7927 7.94945 13.7927 7.94938 13.7927 7.94931C13.7927 7.94925 13.7927 7.94918 13.7927 7.94912C13.7927 7.94905 13.7927 7.94899 13.7927 7.94892C13.7927 7.94885 13.7927 7.94879 13.7927 7.94872C13.7927 7.94866 13.7927 7.94859 13.7927 7.94852C13.7927 7.94846 13.7927 7.94839 13.7927 7.94833C13.7927 7.94826 13.7927 7.9482 13.7927 7.94813C13.7927 7.94806 13.7927 7.948 13.7927 7.94793C13.7927 7.94787 13.7927 7.9478 13.7927 7.94773C13.7927 7.94767 13.7927 7.9476 13.7927 7.94754C13.7927 7.94747 13.7927 7.9474 13.7927 7.94734C13.7927 7.94727 13.7927 7.94721 13.7927 7.94714C13.7927 7.94708 13.7927 7.94701 13.7927 7.94694C13.7927 7.94688 13.7927 7.94681 13.7927 7.94675C13.7927 7.94668 13.7927 7.94661 13.7927 7.94655C13.7927 7.94648 13.7927 7.94642 13.7927 7.94635C13.7927 7.94628 13.7927 7.94622 13.7927 7.94615C13.7927 7.94609 13.7927 7.94602 13.7927 7.94595C13.7927 7.94589 13.7927 7.94582 13.7927 7.94576C13.7927 7.94569 13.7927 7.94562 13.7927 7.94556C13.7927 7.94549 13.7927 7.94543 13.7927 7.94536C13.7927 7.94529 13.7927 7.94523 13.7927 7.94516C13.7927 7.9451 13.7927 7.94503 13.7927 7.94496C13.7927 7.9449 13.7927 7.94483 13.7927 7.94477C13.7927 7.9447 13.7927 7.94463 13.7927 7.94457C13.7927 7.9445 13.7927 7.94444 13.7927 7.94437C13.7927 7.9443 13.7927 7.94424 13.7927 7.94417C13.7927 7.94411 13.7927 7.94404 13.7927 7.94397C13.7927 7.94391 13.7927 7.94384 13.7927 7.94378C13.7927 7.94371 13.7927 7.94364 13.7927 7.94358C13.7927 7.94351 13.7927 7.94345 13.7927 7.94338C13.7927 7.94331 13.7927 7.94325 13.7927 7.94318C13.7927 7.94312 13.7927 7.94305 13.7927 7.94298C13.7927 7.94292 13.7927 7.94285 13.7927 7.94279C13.7927 7.94272 13.7927 7.94265 13.7927 7.94259C13.7927 7.94252 13.7927 7.94245 13.7927 7.94239C13.7927 7.94232 13.7927 7.94226 13.7927 7.94219C13.7927 7.94212 13.7927 7.94206 13.7927 7.94199C13.7927 7.94193 13.7927 7.94186 13.7927 7.94179C13.7927 7.94173 13.7927 7.94166 13.7927 7.9416C13.7927 7.94153 13.7927 7.94146 13.7927 7.9414C13.7927 7.94133 13.7927 7.94126 13.7927 7.9412C13.7927 7.94113 13.7927 7.94107 13.7927 7.941C13.7927 7.94093 13.7927 7.94087 13.7927 7.9408C13.7927 7.94073 13.7927 7.94067 13.7927 7.9406C13.7927 7.94054 13.7927 7.94047 13.7927 7.9404C13.7927 7.94034 13.7927 7.94027 13.7927 7.94021C13.7927 7.94014 13.7927 7.94007 13.7927 7.94001C13.7927 7.93994 13.7927 7.93987 13.7927 7.93981C13.7927 7.93974 13.7927 7.93968 13.7927 7.93961C13.7927 7.93954 13.7927 7.93948 13.7927 7.93941C13.7927 7.93934 13.7927 7.93928 13.7927 7.93921C13.7927 7.93915 13.7927 7.93908 13.7927 7.93901C13.7927 7.93895 13.7927 7.93888 13.7927 7.93881C13.7927 7.93875 13.7927 7.93868 13.7927 7.93861C13.7927 7.93855 13.7927 7.93848 13.7927 7.93842C13.7927 7.93835 13.7927 7.93828 13.7927 7.93822C13.7927 7.93815 13.7927 7.93808 13.7927 7.93802C13.7927 7.93795 13.7927 7.93789 13.7927 7.93782C13.7927 7.93775 13.7927 7.93769 13.7927 7.93762C13.7927 7.93755 13.7927 7.93749 13.7927 7.93742C13.7927 7.93735 13.7927 7.93729 13.7927 7.93722C13.7927 7.93716 13.7927 7.93709 13.7927 7.93702C13.7927 7.93696 13.7927 7.93689 13.7927 7.93682C13.7927 7.93676 13.7927 7.93669 13.7927 7.93662C13.7927 7.93656 13.7927 7.93649 13.7927 7.93643C13.7927 7.93636 13.7927 7.93629 13.7927 7.93623C13.7927 7.93616 13.7927 7.93609 13.7927 7.93603C13.7927 7.93596 13.7927 7.93589 13.7927 7.93583C13.7927 7.93576 13.7927 7.93569 13.7927 7.93563C13.7927 7.93556 13.7927 7.9355 13.7927 7.93543C13.7927 7.93536 13.7927 7.9353 13.7927 7.93523C13.7927 7.93516 13.7927 7.9351 13.7927 7.93503C13.7927 7.93496 13.7927 7.9349 13.7927 7.93483C13.7927 7.93476 13.7927 7.9347 13.7927 7.93463C13.7927 7.93457 13.7927 7.9345 13.7927 7.93443C13.7927 7.93437 13.7927 7.9343 13.7927 7.93423C13.7927 7.93417 13.7927 7.9341 13.7927 7.93403C13.7927 7.93397 13.7927 7.9339 13.7927 7.93383C13.7927 7.93377 13.7927 7.9337 13.7927 7.93363C13.7927 7.93357 13.7927 7.9335 13.7927 7.93343C13.7927 7.93337 13.7927 7.9333 13.7927 7.93323C13.7927 7.93317 13.7927 7.9331 13.7927 7.93303C13.7927 7.93297 13.7927 7.9329 13.7927 7.93284C13.7927 7.93277 13.7927 7.9327 13.7927 7.93264C13.7927 7.93257 13.7927 7.9325 13.7927 7.93244C13.7927 7.93237 13.7927 7.9323 13.7927 7.93224C13.7927 7.93217 13.7927 7.9321 13.7927 7.93204C13.7927 7.93197 13.7927 7.9319 13.7927 7.93184C13.7927 7.93177 13.7927 7.9317 13.7927 7.93164C13.7927 7.93157 13.7927 7.9315 13.7927 7.93144C13.7927 7.93137 13.7927 7.9313 13.7927 7.93124C13.7927 7.93117 13.7927 7.9311 13.7927 7.93104C13.7927 7.93097 13.7927 7.9309 13.7927 7.93084C13.7927 7.93077 13.7927 7.9307 13.7927 7.93064C13.7927 7.93057 13.7927 7.9305 13.7927 7.93044C13.7927 7.93037 13.7927 7.9303 13.7927 7.93024C13.7927 7.93017 13.7927 7.9301 13.7927 7.93004C13.7927 7.92997 13.7927 7.9299 13.7927 7.92984C13.7927 7.92977 13.7927 7.9297 13.7927 7.92964C13.7927 7.92957 13.7927 7.9295 13.7927 7.92944C13.7927 7.92937 13.7927 7.9293 13.7927 7.92923C13.7927 7.92917 13.7927 7.9291 13.7927 7.92903C13.7927 7.92897 13.7927 7.9289 13.7927 7.92883C13.7927 7.92877 13.7927 7.9287 13.7927 7.92863C13.7927 7.92857 13.7927 7.9285 13.7927 7.92843C13.7927 7.92837 13.7927 7.9283 13.7927 7.92823C13.7927 7.92817 13.7927 7.9281 13.7927 7.92803C13.7927 7.92797 13.7927 7.9279 13.7927 7.92783C13.7927 7.92777 13.7927 7.9277 13.7927 7.92763C13.7927 7.92756 13.7927 7.9275 13.7927 7.92743C13.7927 7.92736 13.7927 7.9273 13.7927 7.92723C13.7927 7.92716 13.7927 7.9271 13.7927 7.92703C13.7927 7.92696 13.7927 7.9269 13.7927 7.92683C13.7927 7.92676 13.7927 7.9267 13.7927 7.92663C13.7927 7.92656 13.7927 7.92649 13.7927 7.92643C13.7927 7.92636 13.7927 7.92629 13.7927 7.92623C13.7927 7.92616 13.7927 7.92609 13.7927 7.92603C13.7927 7.92596 13.7927 7.92589 13.7927 7.92583C13.7927 7.92576 13.7927 7.92569 13.7927 7.92562C13.7927 7.92556 13.7927 7.92549 13.7927 7.92542H12.1207C12.1207 7.92549 12.1207 7.92556 12.1207 7.92562C12.1207 7.92569 12.1207 7.92576 12.1207 7.92583C12.1207 7.92589 12.1207 7.92596 12.1207 7.92603C12.1207 7.92609 12.1207 7.92616 12.1207 7.92623C12.1207 7.92629 12.1207 7.92636 12.1207 7.92643C12.1207 7.92649 12.1207 7.92656 12.1207 7.92663C12.1207 7.9267 12.1207 7.92676 12.1207 7.92683C12.1207 7.9269 12.1207 7.92696 12.1207 7.92703C12.1207 7.9271 12.1207 7.92716 12.1207 7.92723C12.1207 7.9273 12.1207 7.92736 12.1207 7.92743C12.1207 7.9275 12.1207 7.92756 12.1207 7.92763C12.1207 7.9277 12.1207 7.92777 12.1207 7.92783C12.1207 7.9279 12.1207 7.92797 12.1207 7.92803C12.1207 7.9281 12.1207 7.92817 12.1207 7.92823C12.1207 7.9283 12.1207 7.92837 12.1207 7.92843C12.1207 7.9285 12.1207 7.92857 12.1207 7.92863C12.1207 7.9287 12.1207 7.92877 12.1207 7.92883C12.1207 7.9289 12.1207 7.92897 12.1207 7.92903C12.1207 7.9291 12.1207 7.92917 12.1207 7.92923C12.1207 7.9293 12.1207 7.92937 12.1207 7.92944C12.1207 7.9295 12.1207 7.92957 12.1207 7.92964C12.1207 7.9297 12.1207 7.92977 12.1207 7.92984C12.1207 7.9299 12.1207 7.92997 12.1207 7.93004C12.1207 7.9301 12.1207 7.93017 12.1207 7.93024C12.1207 7.9303 12.1207 7.93037 12.1207 7.93044C12.1207 7.9305 12.1207 7.93057 12.1207 7.93064C12.1207 7.9307 12.1207 7.93077 12.1207 7.93084C12.1207 7.9309 12.1207 7.93097 12.1207 7.93104C12.1207 7.9311 12.1207 7.93117 12.1207 7.93124C12.1207 7.9313 12.1207 7.93137 12.1207 7.93144C12.1207 7.9315 12.1207 7.93157 12.1207 7.93164C12.1207 7.9317 12.1207 7.93177 12.1207 7.93184C12.1207 7.9319 12.1207 7.93197 12.1207 7.93204C12.1207 7.9321 12.1207 7.93217 12.1207 7.93224C12.1207 7.9323 12.1207 7.93237 12.1207 7.93244C12.1207 7.9325 12.1207 7.93257 12.1207 7.93264C12.1207 7.9327 12.1207 7.93277 12.1207 7.93284C12.1207 7.9329 12.1207 7.93297 12.1207 7.93303C12.1207 7.9331 12.1207 7.93317 12.1207 7.93323C12.1207 7.9333 12.1207 7.93337 12.1207 7.93343C12.1207 7.9335 12.1207 7.93357 12.1207 7.93363C12.1207 7.9337 12.1207 7.93377 12.1207 7.93383C12.1207 7.9339 12.1207 7.93397 12.1207 7.93403C12.1207 7.9341 12.1207 7.93417 12.1207 7.93423C12.1207 7.9343 12.1207 7.93437 12.1207 7.93443C12.1207 7.9345 12.1207 7.93457 12.1207 7.93463C12.1207 7.9347 12.1207 7.93476 12.1207 7.93483C12.1207 7.9349 12.1207 7.93496 12.1207 7.93503C12.1207 7.9351 12.1207 7.93516 12.1207 7.93523C12.1207 7.9353 12.1207 7.93536 12.1207 7.93543C12.1207 7.9355 12.1207 7.93556 12.1207 7.93563C12.1207 7.93569 12.1207 7.93576 12.1207 7.93583C12.1207 7.93589 12.1207 7.93596 12.1207 7.93603C12.1207 7.93609 12.1207 7.93616 12.1207 7.93623C12.1207 7.93629 12.1207 7.93636 12.1207 7.93643C12.1207 7.93649 12.1207 7.93656 12.1207 7.93662C12.1207 7.93669 12.1207 7.93676 12.1207 7.93682C12.1207 7.93689 12.1207 7.93696 12.1207 7.93702C12.1207 7.93709 12.1207 7.93716 12.1207 7.93722C12.1207 7.93729 12.1207 7.93735 12.1207 7.93742C12.1207 7.93749 12.1207 7.93755 12.1207 7.93762C12.1207 7.93769 12.1207 7.93775 12.1207 7.93782C12.1207 7.93789 12.1207 7.93795 12.1207 7.93802C12.1207 7.93808 12.1207 7.93815 12.1207 7.93822C12.1207 7.93828 12.1207 7.93835 12.1207 7.93842C12.1207 7.93848 12.1207 7.93855 12.1207 7.93861C12.1207 7.93868 12.1207 7.93875 12.1207 7.93881C12.1207 7.93888 12.1207 7.93895 12.1207 7.93901C12.1207 7.93908 12.1207 7.93915 12.1207 7.93921C12.1207 7.93928 12.1207 7.93934 12.1207 7.93941C12.1207 7.93948 12.1207 7.93954 12.1207 7.93961C12.1207 7.93968 12.1207 7.93974 12.1207 7.93981C12.1207 7.93987 12.1207 7.93994 12.1207 7.94001C12.1207 7.94007 12.1207 7.94014 12.1207 7.94021C12.1207 7.94027 12.1207 7.94034 12.1207 7.9404C12.1207 7.94047 12.1207 7.94054 12.1207 7.9406C12.1207 7.94067 12.1207 7.94073 12.1207 7.9408C12.1207 7.94087 12.1207 7.94093 12.1207 7.941C12.1207 7.94107 12.1207 7.94113 12.1207 7.9412C12.1207 7.94126 12.1207 7.94133 12.1207 7.9414C12.1207 7.94146 12.1207 7.94153 12.1207 7.9416C12.1207 7.94166 12.1207 7.94173 12.1207 7.94179C12.1207 7.94186 12.1207 7.94193 12.1207 7.94199C12.1207 7.94206 12.1207 7.94212 12.1207 7.94219C12.1207 7.94226 12.1207 7.94232 12.1207 7.94239C12.1207 7.94245 12.1207 7.94252 12.1207 7.94259C12.1207 7.94265 12.1207 7.94272 12.1207 7.94279C12.1207 7.94285 12.1207 7.94292 12.1207 7.94298C12.1207 7.94305 12.1207 7.94312 12.1207 7.94318C12.1207 7.94325 12.1207 7.94331 12.1207 7.94338C12.1207 7.94345 12.1207 7.94351 12.1207 7.94358C12.1207 7.94364 12.1207 7.94371 12.1207 7.94378C12.1207 7.94384 12.1207 7.94391 12.1207 7.94397C12.1207 7.94404 12.1207 7.94411 12.1207 7.94417C12.1207 7.94424 12.1207 7.9443 12.1207 7.94437C12.1207 7.94444 12.1207 7.9445 12.1207 7.94457C12.1207 7.94463 12.1207 7.9447 12.1207 7.94477C12.1207 7.94483 12.1207 7.9449 12.1207 7.94496C12.1207 7.94503 12.1207 7.9451 12.1207 7.94516C12.1207 7.94523 12.1207 7.94529 12.1207 7.94536C12.1207 7.94543 12.1207 7.94549 12.1207 7.94556C12.1207 7.94562 12.1207 7.94569 12.1207 7.94576C12.1207 7.94582 12.1207 7.94589 12.1207 7.94595C12.1207 7.94602 12.1207 7.94609 12.1207 7.94615C12.1207 7.94622 12.1207 7.94628 12.1207 7.94635C12.1207 7.94642 12.1207 7.94648 12.1207 7.94655C12.1207 7.94661 12.1207 7.94668 12.1207 7.94675C12.1207 7.94681 12.1207 7.94688 12.1207 7.94694C12.1207 7.94701 12.1207 7.94708 12.1207 7.94714C12.1207 7.94721 12.1207 7.94727 12.1207 7.94734C12.1207 7.9474 12.1207 7.94747 12.1207 7.94754C12.1207 7.9476 12.1207 7.94767 12.1207 7.94773C12.1207 7.9478 12.1207 7.94787 12.1207 7.94793C12.1207 7.948 12.1207 7.94806 12.1207 7.94813C12.1207 7.9482 12.1207 7.94826 12.1207 7.94833C12.1207 7.94839 12.1207 7.94846 12.1207 7.94852C12.1207 7.94859 12.1207 7.94866 12.1207 7.94872C12.1207 7.94879 12.1207 7.94885 12.1207 7.94892C12.1207 7.94899 12.1207 7.94905 12.1207 7.94912C12.1207 7.94918 12.1207 7.94925 12.1207 7.94931C12.1207 7.94938 12.1207 7.94945 12.1207 7.94951C12.1207 7.94958 12.1207 7.94964 12.1207 7.94971C12.1207 7.94978 12.1207 7.94984 12.1207 7.94991C12.1207 7.94997 12.1207 7.95004 12.1207 7.9501C12.1207 7.95017 12.1207 7.95024 12.1207 7.9503C12.1207 7.95037 12.1207 7.95043 12.1207 7.9505C12.1207 7.95056 12.1207 7.95063 12.1207 7.9507C12.1207 7.95076 12.1207 7.95083 12.1207 7.95089C12.1207 7.95096 12.1207 7.95103 12.1207 7.95109C12.1207 7.95116 12.1207 7.95122 12.1207 7.95129C12.1207 7.95135 12.1207 7.95142 12.1207 7.95149C12.1207 7.95155 12.1207 7.95162 12.1207 7.95168C12.1207 7.95175 12.1207 7.95181 12.1207 7.95188C12.1207 7.95195 12.1207 7.95201 12.1207 7.95208C12.1207 7.95214 12.1207 7.95221 12.1207 7.95227C12.1207 7.95234 12.1207 7.9524 12.1207 7.95247C12.1207 7.95254 12.1207 7.9526 12.1207 7.95267C12.1207 7.95273 12.1207 7.9528 12.1207 7.95286C12.1207 7.95293 12.1207 7.953 12.1207 7.95306C12.1207 7.95313 12.1207 7.95319 12.1207 7.95326C12.1207 7.95332 12.1207 7.95339 12.1207 7.95346C12.1207 7.95352 12.1207 7.95359 12.1207 7.95365C12.1207 7.95372 12.1207 7.95378 12.1207 7.95385C12.1207 7.95392 12.1207 7.95398 12.1207 7.95405C12.1207 7.95411 12.1207 7.95418 12.1207 7.95424C12.1207 7.95431 12.1207 7.95437 12.1207 7.95444C12.1207 7.95451 12.1207 7.95457 12.1207 7.95464C12.1207 7.9547 12.1207 7.95477 12.1207 7.95483C12.1207 7.9549 12.1207 7.95496 12.1207 7.95503C12.1207 7.9551 12.1207 7.95516 12.1207 7.95523C12.1207 7.95529 12.1207 7.95536 12.1207 7.95542C12.1207 7.95549 12.1207 7.95555 12.1207 7.95562C12.1207 7.95569 12.1207 7.95575 12.1207 7.95582C12.1207 7.95588 12.1207 7.95595 12.1207 7.95601C12.1207 7.95608 12.1207 7.95614 12.1207 7.95621C12.1207 7.95628 12.1207 7.95634 12.1207 7.95641C12.1207 7.95647 12.1207 7.95654 12.1207 7.9566C12.1207 7.95667 12.1207 7.95673 12.1207 7.9568C12.1207 7.95687 12.1207 7.95693 12.1207 7.957C12.1207 7.95706 12.1207 7.95713 12.1207 7.95719C12.1207 7.95726 12.1207 7.95732 12.1207 7.95739C12.1207 7.95746 12.1207 7.95752 12.1207 7.95759C12.1207 7.95765 12.1207 7.95772 12.1207 7.95778C12.1207 7.95785 12.1207 7.95791 12.1207 7.95798C12.1207 7.95804 12.1207 7.95811 12.1207 7.95818C12.1207 7.95824 12.1207 7.95831 12.1207 7.95837C12.1207 7.95844 12.1207 7.9585 12.1207 7.95857C12.1207 7.95863 12.1207 7.9587 12.1207 7.95876C12.1207 7.95883 12.1207 7.9589 12.1207 7.95896C12.1207 7.95903 12.1207 7.95909 12.1207 7.95916C12.1207 7.95922 12.1207 7.95929 12.1207 7.95935C12.1207 7.95942 12.1207 7.95948 12.1207 7.95955C12.1207 7.95961 12.1207 7.95968 12.1207 7.95975C12.1207 7.95981 12.1207 7.95988 12.1207 7.95994C12.1207 7.96001 12.1207 7.96007 12.1207 7.96014C12.1207 7.9602 12.1207 7.96027 12.1207 7.96033C12.1207 7.9604 12.1207 7.96046 12.1207 7.96053C12.1207 7.9606 12.1207 7.96066 12.1207 7.96073C12.1207 7.96079 12.1207 7.96086 12.1207 7.96092C12.1207 7.96099 12.1207 7.96105 12.1207 7.96112C12.1207 7.96118 12.1207 7.96125 12.1207 7.96131C12.1207 7.96138 12.1207 7.96145 12.1207 7.96151C12.1207 7.96158 12.1207 7.96164 12.1207 7.96171C12.1207 7.96177 12.1207 7.96184 12.1207 7.9619C12.1207 7.96197 12.1207 7.96203 12.1207 7.9621C12.1207 7.96216 12.1207 7.96223 12.1207 7.96229C12.1207 7.96236 12.1207 7.96242 12.1207 7.96249C12.1207 7.96256 12.1207 7.96262 12.1207 7.96269C12.1207 7.96275 12.1207 7.96282 12.1207 7.96288C12.1207 7.96295 12.1207 7.96301 12.1207 7.96308C12.1207 7.96314 12.1207 7.96321 12.1207 7.96327C12.1207 7.96334 12.1207 7.9634 12.1207 7.96347C12.1207 7.96353 12.1207 7.9636 12.1207 7.96367C12.1207 7.96373 12.1207 7.9638 12.1207 7.96386C12.1207 7.96393 12.1207 7.96399 12.1207 7.96406C12.1207 7.96412 12.1207 7.96419 12.1207 7.96425C12.1207 7.96432 12.1207 7.96438 12.1207 7.96445C12.1207 7.96451 12.1207 7.96458 12.1207 7.96464C12.1207 7.96471 12.1207 7.96477 12.1207 7.96484C12.1207 7.9649 12.1207 7.96497 12.1207 7.96504C12.1207 7.9651 12.1207 7.96517 12.1207 7.96523C12.1207 7.9653 12.1207 7.96536 12.1207 7.96543C12.1207 7.96549 12.1207 7.96556 12.1207 7.96562C12.1207 7.96569 12.1207 7.96575 12.1207 7.96582C12.1207 7.96588 12.1207 7.96595 12.1207 7.96601C12.1207 7.96608 12.1207 7.96614 12.1207 7.96621C12.1207 7.96627 12.1207 7.96634 12.1207 7.9664C12.1207 7.96647 12.1207 7.96653 12.1207 7.9666C12.1207 7.96666 12.1207 7.96673 12.1207 7.9668C12.1207 7.96686 12.1207 7.96693 12.1207 7.96699C12.1207 7.96706 12.1207 7.96712 12.1207 7.96719C12.1207 7.96725 12.1207 7.96732 12.1207 7.96738C12.1207 7.96745 12.1207 7.96751 12.1207 7.96758C12.1207 7.96764 12.1207 7.96771 12.1207 7.96777C12.1207 7.96784 12.1207 7.9679 12.1207 7.96797C12.1207 7.96803 12.1207 7.9681 12.1207 7.96816C12.1207 7.96823 12.1207 7.96829 12.1207 7.96836C12.1207 7.96842 12.1207 7.96849 12.1207 7.96855C12.1207 7.96862 12.1207 7.96868 12.1207 7.96875C12.1207 7.96881 12.1207 7.96888 12.1207 7.96894C12.1207 7.96901 12.1207 7.96907 12.1207 7.96914C12.1207 7.9692 12.1207 7.96927 12.1207 7.96933C12.1207 7.9694 12.1207 7.96946 12.1207 7.96953C12.1207 7.96959 12.1207 7.96966 12.1207 7.96973C12.1207 7.96979 12.1207 7.96986 12.1207 7.96992C12.1207 7.96999 12.1207 7.97005 12.1207 7.97012C12.1207 7.97018 12.1207 7.97025 12.1207 7.97031C12.1207 7.97038 12.1207 7.97044 12.1207 7.97051C12.1207 7.97057 12.1207 7.97064 12.1207 7.9707C12.1207 7.97077 12.1207 7.97083 12.1207 7.9709C12.1207 7.97096 12.1207 7.97103 12.1207 7.97109C12.1207 7.97116 12.1207 7.97122 12.1207 7.97129C12.1207 7.97135 12.1207 7.97142 12.1207 7.97148C12.1207 7.97155 12.1207 7.97161 12.1207 7.97168C12.1207 7.97174 12.1207 7.97181 12.1207 7.97187C12.1207 7.97194 12.1207 7.972 12.1207 7.97207C12.1207 7.97213 12.1207 7.9722 12.1207 7.97226C12.1207 7.97233 12.1207 7.97239 12.1207 7.97246C12.1207 7.97252 12.1207 7.97259 12.1207 7.97265C12.1207 7.97272 12.1207 7.97278 12.1207 7.97285C12.1207 7.97291 12.1207 7.97298 12.1207 7.97304C12.1207 7.97311 12.1207 7.97317 12.1207 7.97324C12.1207 7.9733 12.1207 7.97337 12.1207 7.97343C12.1207 7.9735 12.1207 7.97356 12.1207 7.97363C12.1207 7.97369 12.1207 7.97375 12.1207 7.97382C12.1207 7.97388 12.1207 7.97395 12.1207 7.97401C12.1207 7.97408 12.1207 7.97414 12.1207 7.97421C12.1207 7.97427 12.1207 7.97434 12.1207 7.9744C12.1207 7.97447 12.1207 7.97453 12.1207 7.9746C12.1207 7.97466 12.1207 7.97473 12.1207 7.97479C12.1207 7.97486 12.1207 7.97492 12.1207 7.97499C12.1207 7.97505 12.1207 7.97512 12.1207 7.97518C12.1207 7.97525 12.1207 7.97531 12.1207 7.97538C12.1207 7.97544 12.1207 7.97551 12.1207 7.97557C12.1207 7.97564 12.1207 7.9757 12.1207 7.97577C12.1207 7.97583 12.1207 7.9759 12.1207 7.97596C12.1207 7.97603 12.1207 7.97609 12.1207 7.97616C12.1207 7.97622 12.1207 7.97629 12.1207 7.97635C12.1207 7.97642 12.1207 7.97648 12.1207 7.97655C12.1207 7.97661 12.1207 7.97668 12.1207 7.97674C12.1207 7.9768 12.1207 7.97687 12.1207 7.97693C12.1207 7.977 12.1207 7.97706 12.1207 7.97713C12.1207 7.97719 12.1207 7.97726 12.1207 7.97732C12.1207 7.97739 12.1207 7.97745 12.1207 7.97752C12.1207 7.97758 12.1207 7.97765 12.1207 7.97771C12.1207 7.97778 12.1207 7.97784 12.1207 7.97791C12.1207 7.97797 12.1207 7.97804 12.1207 7.9781C12.1207 7.97817 12.1207 7.97823 12.1207 7.9783C12.1207 7.97836 12.1207 7.97843 12.1207 7.97849C12.1207 7.97856 12.1207 7.97862 12.1207 7.97868C12.1207 7.97875 12.1207 7.97881 12.1207 7.97888C12.1207 7.97894 12.1207 7.97901 12.1207 7.97907C12.1207 7.97914 12.1207 7.9792 12.1207 7.97927C12.1207 7.97933 12.1207 7.9794 12.1207 7.97946C12.1207 7.97953 12.1207 7.97959 12.1207 7.97966C12.1207 7.97972 12.1207 7.97979 12.1207 7.97985C12.1207 7.97992 12.1207 7.97998 12.1207 7.98005C12.1207 7.98011 12.1207 7.98018 12.1207 7.98024C12.1207 7.9803 12.1207 7.98037 12.1207 7.98043C12.1207 7.9805 12.1207 7.98056 12.1207 7.98063C12.1207 7.98069 12.1207 7.98076 12.1207 7.98082C12.1207 7.98089 12.1207 7.98095 12.1207 7.98102C12.1207 7.98108 12.1207 7.98115 12.1207 7.98121C12.1207 7.98128 12.1207 7.98134 12.1207 7.98141C12.1207 7.98147 12.1207 7.98153 12.1207 7.9816C12.1207 7.98166 12.1207 7.98173 12.1207 7.98179C12.1207 7.98186 12.1207 7.98192 12.1207 7.98199C12.1207 7.98205 12.1207 7.98212 12.1207 7.98218C12.1207 7.98225 12.1207 7.98231 12.1207 7.98238C12.1207 7.98244 12.1207 7.98251 12.1207 7.98257C12.1207 7.98263 12.1207 7.9827 12.1207 7.98276C12.1207 7.98283 12.1207 7.98289 12.1207 7.98296C12.1207 7.98302 12.1207 7.98309 12.1207 7.98315C12.1207 7.98322 12.1207 7.98328 12.1207 7.98335C12.1207 7.98341 12.1207 7.98348 12.1207 7.98354C12.1207 7.9836 12.1207 7.98367 12.1207 7.98373C12.1207 7.9838 12.1207 7.98386 12.1207 7.98393C12.1207 7.98399 12.1207 7.98406 12.1207 7.98412C12.1207 7.98419 12.1207 7.98425 12.1207 7.98432C12.1207 7.98438 12.1207 7.98445 12.1207 7.98451C12.1207 7.98457 12.1207 7.98464 12.1207 7.9847C12.1207 7.98477 12.1207 7.98483 12.1207 7.9849C12.1207 7.98496 12.1207 7.98503 12.1207 7.98509C12.1207 7.98516 12.1207 7.98522 12.1207 7.98529C12.1207 7.98535 12.1207 7.98542 12.1207 7.98548C12.1207 7.98554 12.1207 7.98561 12.1207 7.98567C12.1207 7.98574 12.1207 7.9858 12.1207 7.98587C12.1207 7.98593 12.1207 7.986 12.1207 7.98606C12.1207 7.98613 12.1207 7.98619 12.1207 7.98626C12.1207 7.98632 12.1207 7.98638 12.1207 7.98645C12.1207 7.98651 12.1207 7.98658 12.1207 7.98664C12.1207 7.98671 12.1207 7.98677 12.1207 7.98684C12.1207 7.9869 12.1207 7.98697 12.1207 7.98703C12.1207 7.9871 12.1207 7.98716 12.1207 7.98722C12.1207 7.98729 12.1207 7.98735 12.1207 7.98742C12.1207 7.98748 12.1207 7.98755 12.1207 7.98761C12.1207 7.98768 12.1207 7.98774 12.1207 7.98781C12.1207 7.98787 12.1207 7.98794 12.1207 7.988C12.1207 7.98806 12.1207 7.98813 12.1207 7.98819C12.1207 7.98826 12.1207 7.98832 12.1207 7.98839C12.1207 7.98845 12.1207 7.98852 12.1207 7.98858C12.1207 7.98865 12.1207 7.98871 12.1207 7.98877C12.1207 7.98884 12.1207 7.9889 12.1207 7.98897C12.1207 7.98903 12.1207 7.9891 12.1207 7.98916C12.1207 7.98923 12.1207 7.98929 12.1207 7.98936C12.1207 7.98942 12.1207 7.98948 12.1207 7.98955C12.1207 7.98961 12.1207 7.98968 12.1207 7.98974C12.1207 7.98981 12.1207 7.98987 12.1207 7.98994C12.1207 7.99 12.1207 7.99007 12.1207 7.99013C12.1207 7.99019 12.1207 7.99026 12.1207 7.99032C12.1207 7.99039 12.1207 7.99045 12.1207 7.99052C12.1207 7.99058 12.1207 7.99065 12.1207 7.99071C12.1207 7.99078 12.1207 7.99084 12.1207 7.9909C12.1207 7.99097 12.1207 7.99103 12.1207 7.9911C12.1207 7.99116 12.1207 7.99123 12.1207 7.99129C12.1207 7.99136 12.1207 7.99142 12.1207 7.99148C12.1207 7.99155 12.1207 7.99161 12.1207 7.99168C12.1207 7.99174 12.1207 7.99181 12.1207 7.99187C12.1207 7.99194 12.1207 7.992 12.1207 7.99207C12.1207 7.99213 12.1207 7.99219 12.1207 7.99226C12.1207 7.99232 12.1207 7.99239 12.1207 7.99245C12.1207 7.99252 12.1207 7.99258 12.1207 7.99265C12.1207 7.99271 12.1207 7.99277 12.1207 7.99284C12.1207 7.9929 12.1207 7.99297 12.1207 7.99303C12.1207 7.9931 12.1207 7.99316 12.1207 7.99323C12.1207 7.99329 12.1207 7.99335 12.1207 7.99342C12.1207 7.99348 12.1207 7.99355 12.1207 7.99361C12.1207 7.99368 12.1207 7.99374 12.1207 7.99381C12.1207 7.99387 12.1207 7.99394 12.1207 7.994C12.1207 7.99406 12.1207 7.99413 12.1207 7.99419C12.1207 7.99426 12.1207 7.99432 12.1207 7.99439C12.1207 7.99445 12.1207 7.99452 12.1207 7.99458C12.1207 7.99464 12.1207 7.99471 12.1207 7.99477C12.1207 7.99484 12.1207 7.9949 12.1207 7.99497C12.1207 7.99503 12.1207 7.9951 12.1207 7.99516C12.1207 7.99522 12.1207 7.99529 12.1207 7.99535C12.1207 7.99542 12.1207 7.99548 12.1207 7.99555C12.1207 7.99561 12.1207 7.99568 12.1207 7.99574C12.1207 7.9958 12.1207 7.99587 12.1207 7.99593C12.1207 7.996 12.1207 7.99606 12.1207 7.99613C12.1207 7.99619 12.1207 7.99625 12.1207 7.99632C12.1207 7.99638 12.1207 7.99645 12.1207 7.99651C12.1207 7.99658 12.1207 7.99664 12.1207 7.99671C12.1207 7.99677 12.1207 7.99683 12.1207 7.9969C12.1207 7.99696 12.1207 7.99703 12.1207 7.99709C12.1207 7.99716 12.1207 7.99722 12.1207 7.99729C12.1207 7.99735 12.1207 7.99741 12.1207 7.99748C12.1207 7.99754 12.1207 7.99761 12.1207 7.99767C12.1207 7.99774 12.1207 7.9978 12.1207 7.99787C12.1207 7.99793 12.1207 7.99799 12.1207 7.99806C12.1207 7.99812 12.1207 7.99819 12.1207 7.99825C12.1207 7.99832 12.1207 7.99838 12.1207 7.99845C12.1207 7.99851 12.1207 7.99857 12.1207 7.99864C12.1207 7.9987 12.1207 7.99877 12.1207 7.99883C12.1207 7.9989 12.1207 7.99896 12.1207 7.99902C12.1207 7.99909 12.1207 7.99915 12.1207 7.99922C12.1207 7.99928 12.1207 7.99935 12.1207 7.99941C12.1207 7.99948 12.1207 7.99954 12.1207 7.9996C12.1207 7.99967 12.1207 7.99973 12.1207 7.9998C12.1207 7.99986 12.1207 7.99993 12.1207 7.99999C12.1207 8.00005 12.1207 8.00012 12.1207 8.00018C12.1207 8.00025 12.1207 8.00031 12.1207 8.00038C12.1207 8.00044 12.1207 8.0005 12.1207 8.00057C12.1207 8.00063 12.1207 8.0007 12.1207 8.00076C12.1207 8.00083 12.1207 8.00089 12.1207 8.00096C12.1207 8.00102 12.1207 8.00108 12.1207 8.00115C12.1207 8.00121 12.1207 8.00128 12.1207 8.00134C12.1207 8.00141 12.1207 8.00147 12.1207 8.00153C12.1207 8.0016 12.1207 8.00166 12.1207 8.00173C12.1207 8.00179 12.1207 8.00186 12.1207 8.00192C12.1207 8.00198 12.1207 8.00205 12.1207 8.00211C12.1207 8.00218 12.1207 8.00224 12.1207 8.00231C12.1207 8.00237 12.1207 8.00243 12.1207 8.0025C12.1207 8.00256 12.1207 8.00263 12.1207 8.00269C12.1207 8.00276 12.1207 8.00282 12.1207 8.00289C12.1207 8.00295 12.1207 8.00301 12.1207 8.00308C12.1207 8.00314 12.1207 8.00321 12.1207 8.00327C12.1207 8.00334 12.1207 8.0034 12.1207 8.00346C12.1207 8.00353 12.1207 8.00359 12.1207 8.00366C12.1207 8.00372 12.1207 8.00379 12.1207 8.00385C12.1207 8.00391 12.1207 8.00398 12.1207 8.00404C12.1207 8.00411 12.1207 8.00417 12.1207 8.00424C12.1207 8.0043 12.1207 8.00436 12.1207 8.00443C12.1207 8.00449 12.1207 8.00456 12.1207 8.00462C12.1207 8.00469 12.1207 8.00475 12.1207 8.00481C12.1207 8.00488 12.1207 8.00494 12.1207 8.00501C12.1207 8.00507 12.1207 8.00514 12.1207 8.0052C12.1207 8.00526 12.1207 8.00533 12.1207 8.00539C12.1207 8.00546 12.1207 8.00552 12.1207 8.00559C12.1207 8.00565 12.1207 8.00571 12.1207 8.00578C12.1207 8.00584 12.1207 8.00591 12.1207 8.00597C12.1207 8.00604 12.1207 8.0061 12.1207 8.00616C12.1207 8.00623 12.1207 8.00629 12.1207 8.00636C12.1207 8.00642 12.1207 8.00649 12.1207 8.00655C12.1207 8.00661 12.1207 8.00668 12.1207 8.00674C12.1207 8.00681 12.1207 8.00687 12.1207 8.00694C12.1207 8.007 12.1207 8.00706 12.1207 8.00713C12.1207 8.00719 12.1207 8.00726 12.1207 8.00732C12.1207 8.00739 12.1207 8.00745 12.1207 8.00751C12.1207 8.00758 12.1207 8.00764 12.1207 8.00771C12.1207 8.00777 12.1207 8.00784 12.1207 8.0079C12.1207 8.00796 12.1207 8.00803 12.1207 8.00809C12.1207 8.00816 12.1207 8.00822 12.1207 8.00829C12.1207 8.00835 12.1207 8.00841 12.1207 8.00848C12.1207 8.00854 12.1207 8.00861 12.1207 8.00867C12.1207 8.00874 12.1207 8.0088 12.1207 8.00886C12.1207 8.00893 12.1207 8.00899 12.1207 8.00906C12.1207 8.00912 12.1207 8.00919 12.1207 8.00925C12.1207 8.00931 12.1207 8.00938 12.1207 8.00944C12.1207 8.00951 12.1207 8.00957 12.1207 8.00963C12.1207 8.0097 12.1207 8.00976 12.1207 8.00983C12.1207 8.00989 12.1207 8.00996 12.1207 8.01002C12.1207 8.01008 12.1207 8.01015 12.1207 8.01021C12.1207 8.01028 12.1207 8.01034 12.1207 8.01041C12.1207 8.01047 12.1207 8.01053 12.1207 8.0106C12.1207 8.01066 12.1207 8.01073 12.1207 8.01079C12.1207 8.01086 12.1207 8.01092 12.1207 8.01098C12.1207 8.01105 12.1207 8.01111 12.1207 8.01118C12.1207 8.01124 12.1207 8.01131 12.1207 8.01137C12.1207 8.01143 12.1207 8.0115 12.1207 8.01156C12.1207 8.01163 12.1207 8.01169 12.1207 8.01175C12.1207 8.01182 12.1207 8.01188 12.1207 8.01195C12.1207 8.01201 12.1207 8.01208 12.1207 8.01214C12.1207 8.0122 12.1207 8.01227 12.1207 8.01233C12.1207 8.0124 12.1207 8.01246 12.1207 8.01253C12.1207 8.01259 12.1207 8.01265 12.1207 8.01272C12.1207 8.01278 12.1207 8.01285 12.1207 8.01291C12.1207 8.01298 12.1207 8.01304 12.1207 8.0131C12.1207 8.01317 12.1207 8.01323 12.1207 8.0133C12.1207 8.01336 12.1207 8.01342 12.1207 8.01349C12.1207 8.01355 12.1207 8.01362 12.1207 8.01368C12.1207 8.01375 12.1207 8.01381 12.1207 8.01387C12.1207 8.01394 12.1207 8.014 12.1207 8.01407C12.1207 8.01413 12.1207 8.0142 12.1207 8.01426C12.1207 8.01432 12.1207 8.01439 12.1207 8.01445C12.1207 8.01452 12.1207 8.01458 12.1207 8.01464C12.1207 8.01471 12.1207 8.01477 12.1207 8.01484C12.1207 8.0149 12.1207 8.01497 12.1207 8.01503C12.1207 8.01509 12.1207 8.01516 12.1207 8.01522C12.1207 8.01529 12.1207 8.01535 12.1207 8.01542C12.1207 8.01548 12.1207 8.01554 12.1207 8.01561C12.1207 8.01567 12.1207 8.01574 12.1207 8.0158C12.1207 8.01586 12.1207 8.01593 12.1207 8.01599C12.1207 8.01606 12.1207 8.01612 12.1207 8.01619C12.1207 8.01625 12.1207 8.01631 12.1207 8.01638C12.1207 8.01644 12.1207 8.01651 12.1207 8.01657C12.1207 8.01663 12.1207 8.0167 12.1207 8.01676C12.1207 8.01683 12.1207 8.01689 12.1207 8.01696C12.1207 8.01702 12.1207 8.01708 12.1207 8.01715C12.1207 8.01721 12.1207 8.01728 12.1207 8.01734C12.1207 8.01741 12.1207 8.01747 12.1207 8.01753C12.1207 8.0176 12.1207 8.01766 12.1207 8.01773C12.1207 8.01779 12.1207 8.01785 12.1207 8.01792C12.1207 8.01798 12.1207 8.01805 12.1207 8.01811C12.1207 8.01818 12.1207 8.01824 12.1207 8.0183C12.1207 8.01837 12.1207 8.01843 12.1207 8.0185C12.1207 8.01856 12.1207 8.01863 12.1207 8.01869C12.1207 8.01875 12.1207 8.01882 12.1207 8.01888C12.1207 8.01895 12.1207 8.01901 12.1207 8.01907C12.1207 8.01914 12.1207 8.0192 12.1207 8.01927C12.1207 8.01933 12.1207 8.0194 12.1207 8.01946C12.1207 8.01952 12.1207 8.01959 12.1207 8.01965C12.1207 8.01972 12.1207 8.01978 12.1207 8.01985C12.1207 8.01991 12.1207 8.01997 12.1207 8.02004C12.1207 8.0201 12.1207 8.02017 12.1207 8.02023C12.1207 8.02029 12.1207 8.02036 12.1207 8.02042C12.1207 8.02049 12.1207 8.02055 12.1207 8.02062C12.1207 8.02068 12.1207 8.02074 12.1207 8.02081C12.1207 8.02087 12.1207 8.02094 12.1207 8.021C12.1207 8.02106 12.1207 8.02113 12.1207 8.02119C12.1207 8.02126 12.1207 8.02132 12.1207 8.02139C12.1207 8.02145 12.1207 8.02151 12.1207 8.02158C12.1207 8.02164 12.1207 8.02171 12.1207 8.02177C12.1207 8.02183 12.1207 8.0219 12.1207 8.02196C12.1207 8.02203 12.1207 8.02209 12.1207 8.02216C12.1207 8.02222 12.1207 8.02228 12.1207 8.02235C12.1207 8.02241 12.1207 8.02248 12.1207 8.02254C12.1207 8.0226 12.1207 8.02267 12.1207 8.02273C12.1207 8.0228 12.1207 8.02286 12.1207 8.02293C12.1207 8.02299 12.1207 8.02305 12.1207 8.02312C12.1207 8.02318 12.1207 8.02325 12.1207 8.02331C12.1207 8.02337 12.1207 8.02344 12.1207 8.0235C12.1207 8.02357 12.1207 8.02363 12.1207 8.0237C12.1207 8.02376 12.1207 8.02382 12.1207 8.02389C12.1207 8.02395 12.1207 8.02402 12.1207 8.02408C12.1207 8.02415 12.1207 8.02421 12.1207 8.02427C12.1207 8.02434 12.1207 8.0244 12.1207 8.02447C12.1207 8.02453 12.1207 8.02459 12.1207 8.02466C12.1207 8.02472 12.1207 8.02479 12.1207 8.02485C12.1207 8.02492 12.1207 8.02498 12.1207 8.02504C12.1207 8.02511 12.1207 8.02517 12.1207 8.02524C12.1207 8.0253 12.1207 8.02536 12.1207 8.02543H13.7927ZM22.395 14.1231L15.2518 6.63133L14.0417 7.78516L21.1849 15.2769L22.395 14.1231ZM15.247 6.62633C15.1009 6.47562 14.9133 6.37172 14.708 6.32785L14.3586 7.963C14.2397 7.93759 14.1311 7.87743 14.0465 7.79016L15.247 6.62633ZM14.708 6.32785C14.5028 6.28399 14.2891 6.30212 14.0941 6.37996L14.7141 7.93283C14.6012 7.9779 14.4775 7.9884 14.3586 7.963L14.708 6.32785ZM14.0941 6.37996C13.8992 6.45779 13.7318 6.59181 13.6131 6.765L14.9926 7.70986C14.9239 7.81015 14.827 7.88776 14.7141 7.93283L14.0941 6.37996ZM13.6131 6.765C13.4945 6.9382 13.43 7.14273 13.4279 7.35263L15.0999 7.36959C15.0987 7.49113 15.0613 7.60957 14.9926 7.70986L13.6131 6.765ZM13.4279 7.36111V16.6216H15.0999V7.36111H13.4279ZM13.4279 16.6245C13.4284 16.7846 13.4653 16.9425 13.5357 17.0863L15.0375 16.3512C15.0783 16.4345 15.0996 16.5259 15.0999 16.6186L13.4279 16.6245ZM13.5357 17.0863C13.6061 17.2301 13.7082 17.3561 13.8343 17.4547L14.8646 16.1378C14.9376 16.195 14.9967 16.2679 15.0375 16.3512L13.5357 17.0863ZM13.8343 17.4547C13.9604 17.5534 14.1072 17.6222 14.2637 17.6559L14.6159 16.0214C14.7066 16.0409 14.7916 16.0807 14.8646 16.1378L13.8343 17.4547ZM14.2637 17.6559C14.4203 17.6896 14.5824 17.6874 14.7379 17.6494L14.3413 16.0251C14.4314 16.0031 14.5253 16.0018 14.6159 16.0214L14.2637 17.6559ZM14.7406 17.6488L21.8838 15.8801L21.4819 14.2571L14.3387 16.0257L14.7406 17.6488ZM21.8732 15.8827C22.0568 15.8397 22.2256 15.7485 22.3622 15.6185L21.2093 14.4075C21.2884 14.3322 21.3861 14.2794 21.4925 14.2545L21.8732 15.8827ZM22.3622 15.6185C22.4988 15.4885 22.5982 15.3243 22.6501 15.143L21.0426 14.6829C21.0726 14.5779 21.1302 14.4828 21.2093 14.4075L22.3622 15.6185ZM22.6501 15.143C22.702 14.9617 22.7045 14.7698 22.6574 14.5872L21.0383 15.0047C21.0111 14.899 21.0125 14.7879 21.0426 14.6829L22.6501 15.143ZM22.6574 14.5872C22.6104 14.4046 22.5154 14.2379 22.3823 14.1043L21.1977 15.2843C21.1206 15.207 21.0656 15.1104 21.0383 15.0047L22.6574 14.5872ZM20.9539 14.6943V14.7H22.626V14.6943H20.9539ZM18.5976 2.49045C18.1689 2.59574 17.7395 2.69944 17.3083 2.80358L17.7008 4.42891C18.1315 4.32489 18.564 4.22044 18.9964 4.11425L18.5976 2.49045ZM17.3083 2.80358C16.1922 3.07314 15.0636 3.34565 13.9408 3.64798L14.3756 5.26254C15.4738 4.96681 16.5812 4.69932 17.7008 4.42891L17.3083 2.80358ZM15.1161 6.06684C15.3791 6.00375 15.6404 5.94229 15.902 5.88077L15.5192 4.25311C15.2582 4.31451 14.9933 4.3768 14.7261 4.4409L15.1161 6.06684ZM15.902 5.88077C16.7818 5.67386 17.6665 5.46601 18.5423 5.21075L18.0744 3.60548C17.248 3.84636 16.4065 4.04446 15.5192 4.25311L15.902 5.88077ZM12.591 7.76684L13.6973 9.02053L13.6991 9.01898L12.591 7.76684ZM10.8895 9.32692L9.67968 8.17269L9.65446 8.19913L9.63041 8.22665L10.8895 9.32692ZM10.318 10.717L8.64914 10.6136L8.64625 10.6603L8.64597 10.707L10.318 10.717ZM10.298 26.5206H11.9701V26.5201L10.298 26.5206ZM10.3309 27.0578L8.66415 27.1916L8.66461 27.1971L10.3309 27.0578ZM10.5537 27.2621L10.5595 28.9341L10.5993 28.934L10.639 28.9319L10.5537 27.2621ZM12.0366 27.2749L12.2096 25.6118L12.1803 25.6088L12.1509 25.6068L12.0366 27.2749ZM12.971 26.3806L11.2989 26.3884L11.2989 26.3901L12.971 26.3806ZM12.9567 8.02543H11.2846V8.02582L12.9567 8.02543ZM12.9567 7.92542H14.6288V7.90195L14.6281 7.87848L12.9567 7.92542ZM12.2432 8.07132L11.1443 6.81107L11.1443 6.8111L12.2432 8.07132ZM12.9552 13.1484L14.6273 13.1493V13.1493L12.9552 13.1484ZM10.3227 26.9592L11.9894 26.8244L11.989 26.8202L10.3227 26.9592ZM10.2968 23.8117L8.6247 23.8127V23.8127L10.2968 23.8117ZM12.2434 8.07111L13.3423 9.33136L13.3423 9.33133L12.2434 8.07111ZM10.3228 26.9596L8.65615 27.0944L8.65651 27.0987L10.3228 26.9596ZM9.63041 8.22665C9.04881 8.89217 8.70379 9.73144 8.64914 10.6136L11.9869 10.8204C11.9959 10.6751 12.0527 10.5368 12.1485 10.4272L9.63041 8.22665ZM8.66461 27.1971C8.7043 27.6718 8.92134 28.1142 9.2725 28.436L11.5322 25.9709C11.8008 26.2171 11.9667 26.5554 11.9971 26.9184L8.66461 27.1971ZM9.2725 28.436C9.62364 28.7579 10.0832 28.9358 10.5595 28.9341L10.5479 25.59C10.9122 25.5887 11.2637 25.7247 11.5322 25.9709L9.2725 28.436ZM10.639 28.9319C11.0667 28.9101 11.4952 28.9138 11.9224 28.9431L12.1509 25.6068C11.5908 25.5684 11.029 25.5635 10.4684 25.5922L10.639 28.9319ZM11.8637 28.938C12.2725 28.9805 13.2044 29.0409 13.9308 28.344C14.6254 27.6777 14.6453 26.7715 14.643 26.371L11.2989 26.3901C11.2996 26.511 11.2887 26.5072 11.3062 26.4378C11.3273 26.3545 11.4002 26.1376 11.6158 25.9308C11.8372 25.7183 12.0726 25.6472 12.191 25.6261C12.2872 25.6089 12.3137 25.6226 12.2096 25.6118L11.8637 28.938ZM14.6281 7.87848C14.618 7.51873 14.5055 7.16934 14.3038 6.87127L11.5342 8.74534C11.3794 8.51659 11.293 8.24845 11.2853 7.97237L14.6281 7.87848ZM14.3038 6.87127C14.1021 6.5732 13.8196 6.33884 13.4895 6.19568L12.1591 9.26381C11.9058 9.15395 11.6889 8.9741 11.5342 8.74534L14.3038 6.87127ZM13.4895 6.19568C13.1593 6.05252 12.7951 6.00649 12.4397 6.063L12.9648 9.36564C12.692 9.40901 12.4125 9.37368 12.1591 9.26381L13.4895 6.19568ZM12.4397 6.063C12.0843 6.1195 11.7523 6.2762 11.4828 6.51471L13.6991 9.01898C13.4923 9.20202 13.2375 9.32228 12.9648 9.36564L12.4397 6.063ZM11.2846 7.92542V8.02543H14.6288V7.92542H11.2846ZM11.2846 8.02582C11.285 9.73272 11.2841 11.4397 11.2832 13.1475L14.6273 13.1493C14.6282 11.4418 14.6292 9.73347 14.6288 8.02504L11.2846 8.02582ZM11.2832 13.1475C11.2807 17.5579 11.2783 21.9731 11.2989 26.3884L14.643 26.3728C14.6224 21.9677 14.6249 17.5612 14.6273 13.1493L11.2832 13.1475ZM11.989 26.8202C11.9749 26.6515 11.9701 26.5809 11.9701 26.5206H8.62594C8.62594 26.7444 8.64459 26.9559 8.65646 27.0982L11.989 26.8202ZM11.9701 26.5201C11.9698 25.617 11.9693 24.7138 11.9688 23.8108L8.6247 23.8127C8.62519 24.7157 8.62569 25.6184 8.62594 26.521L11.9701 26.5201ZM11.9688 23.8108C11.9664 19.4451 11.964 15.0851 11.99 10.727L8.64597 10.707C8.61989 15.0778 8.6223 19.4488 8.6247 23.8127L11.9688 23.8108ZM12.0992 10.4811C12.4641 10.0987 12.8712 9.74215 13.3421 9.33154L11.1443 6.8111C10.6925 7.20504 10.1681 7.66078 9.67968 8.17269L12.0992 10.4811ZM11.1445 6.81085L11.1443 6.81107L13.3421 9.33158L13.3423 9.33136L11.1445 6.81085ZM8.65612 27.094L8.65615 27.0944L11.9894 26.8248L11.9894 26.8244L8.65612 27.094ZM8.65651 27.0987C8.6592 27.131 8.66172 27.1612 8.66416 27.1916L11.9976 26.9239C11.9946 26.8875 11.9917 26.8523 11.989 26.8205L8.65651 27.0987ZM11.4846 6.51316C11.3738 6.6109 11.2615 6.70887 11.1445 6.81088L13.3423 9.33133C13.4581 9.2304 13.5779 9.12593 13.6973 9.02053L11.4846 6.51316Z" fill="#2E2E2E" mask="url(#path-1-inside-1_504_5113)"/>
<mask id="path-3-inside-2_504_5113" fill="white">
<path d="M0.564782 21.5354C0.560823 21.5717 0.565904 21.6084 0.579574 21.6423C0.832443 22.3294 1.02674 22.8995 1.26532 23.4495C3.94973 29.6412 10.3543 33.7671 17.5361 32.9971C23.2392 32.3913 27.388 29.4512 30.1553 24.5038C30.263 24.3097 30.3056 24.0861 30.2768 23.866C30.248 23.6459 30.1493 23.4408 29.9952 23.2809C27.7094 20.9079 25.4365 18.5078 23.1378 16.1377C23.0304 16.0484 22.9049 15.9835 22.77 15.9475C22.635 15.9115 22.4939 15.9052 22.3563 15.9291C19.8305 16.5206 17.3161 17.1606 14.7917 17.7564C14.3216 17.8664 14.1988 18.0807 14.1988 18.5393C14.2188 21.2537 14.2102 23.9681 14.2102 26.6825C14.214 26.8064 14.225 26.9299 14.2431 27.0525C14.2484 27.1072 14.2739 27.158 14.3145 27.1949C14.3552 27.2319 14.4081 27.2524 14.4631 27.2525H17.699C17.7502 27.2528 17.7997 27.2707 17.8392 27.3033C17.8788 27.3358 17.9059 27.3809 17.9161 27.4311C18.129 28.454 18.0333 28.5069 17.0332 28.5069H6.53271C6.34985 28.5069 6.1684 28.4942 5.98556 28.4815L5.98126 28.4811C5.9258 28.4765 5.87414 28.4511 5.83655 28.4101C5.79896 28.369 5.77819 28.3154 5.77839 28.2597V27.4397C5.77877 27.3808 5.80241 27.3245 5.84417 27.283C5.88592 27.2415 5.9424 27.2182 6.00126 27.2182H8.76425C8.79344 27.2184 8.82239 27.2128 8.84942 27.2018C8.87646 27.1907 8.90104 27.1745 8.92175 27.1539C8.94246 27.1333 8.9589 27.1088 8.97012 27.0819C8.98134 27.0549 8.98711 27.026 8.98711 26.9968V11.8161C8.98696 11.7716 8.97349 11.7282 8.94845 11.6914C8.92342 11.6546 8.88795 11.6262 8.84662 11.6098C8.80529 11.5933 8.75998 11.5896 8.71653 11.5992C8.67308 11.6087 8.63347 11.631 8.60281 11.6632L1.03102 19.6279C1.00131 19.6586 0.981193 19.6973 0.973131 19.7393C0.965069 19.7813 0.96941 19.8247 0.985625 19.8643C1.00184 19.9038 1.02923 19.9378 1.06444 19.962C1.09964 19.9863 1.14115 19.9997 1.18389 20.0008C2.77968 20.0108 4.37547 20.0265 5.96983 20.0008C6.49842 19.9922 6.53557 20.2822 6.53414 20.6708C6.53271 21.0594 6.51271 21.3694 5.97697 21.3451C5.23979 21.3108 4.50119 21.338 3.76258 21.338H0.788155C0.751639 21.3374 0.715557 21.3459 0.683124 21.3627C0.650691 21.3795 0.622913 21.4041 0.602266 21.4342C0.581618 21.4643 0.568741 21.4991 0.564782 21.5354Z"/>
</mask>
<path d="M0.579574 21.6423L2.14876 21.0648L2.1398 21.0405L2.13009 21.0164L0.579574 21.6423ZM0.564782 21.5354L-1.09742 21.3541L-1.09742 21.3541L0.564782 21.5354ZM0.602266 21.4342L1.98143 22.3795L1.98144 22.3795L0.602266 21.4342ZM0.683124 21.3627L-0.0854865 19.8778L-0.085521 19.8778L0.683124 21.3627ZM0.788155 21.338L0.763703 23.0098L0.775928 23.01H0.788155V21.338ZM5.97697 21.3451L5.89928 23.0154L5.90125 23.0154L5.97697 21.3451ZM5.96983 20.0008L5.99679 21.6726L5.99694 21.6726L5.96983 20.0008ZM1.18389 20.0008L1.14356 21.6723L1.15848 21.6727L1.17341 21.6728L1.18389 20.0008ZM0.985625 19.8643L-0.561477 20.4985L-0.561472 20.4985L0.985625 19.8643ZM0.973131 19.7393L2.61518 20.0547L2.61518 20.0547L0.973131 19.7393ZM1.03102 19.6279L2.23314 20.7902L2.24286 20.7799L1.03102 19.6279ZM8.60281 11.6632L7.39161 10.5105L7.39097 10.5112L8.60281 11.6632ZM8.71653 11.5992L8.35855 9.96587L8.35855 9.96587L8.71653 11.5992ZM8.84662 11.6098L9.46462 10.0561L9.46461 10.0561L8.84662 11.6098ZM8.94845 11.6914L10.3305 10.7502V10.7502L8.94845 11.6914ZM8.98711 11.8161H10.6592L10.6592 11.8102L8.98711 11.8161ZM8.98711 26.9968H7.31505V26.9969L8.98711 26.9968ZM8.97012 27.0819L10.5139 27.7242L10.5139 27.7242L8.97012 27.0819ZM8.92175 27.1539L7.74325 25.9677L7.74323 25.9678L8.92175 27.1539ZM8.84942 27.2018L8.21706 25.6539L8.21699 25.6539L8.84942 27.2018ZM8.76425 27.2182L8.77506 25.5462H8.76425V27.2182ZM6.00126 27.2182L6.00123 28.8903H6.00126V27.2182ZM5.84417 27.283L7.02269 28.4691L7.0227 28.4691L5.84417 27.283ZM5.77839 27.4397L4.10633 27.429V27.4397H5.77839ZM5.77839 28.2597L7.45045 28.2656V28.2597H5.77839ZM5.98126 28.4811L5.84108 30.1473L5.85277 30.1483L5.86448 30.1491L5.98126 28.4811ZM17.9161 27.4311L16.2774 27.7633L16.2791 27.7718L17.9161 27.4311ZM17.8392 27.3033L18.9013 26.0118L18.9013 26.0118L17.8392 27.3033ZM17.699 27.2525L17.7085 25.5805H17.699V27.2525ZM14.4631 27.2525L14.4602 28.9246H14.4631V27.2525ZM14.3145 27.1949L13.1898 28.4321L13.1898 28.4322L14.3145 27.1949ZM14.2431 27.0525L15.9073 26.8907L15.9033 26.8494L15.8972 26.8084L14.2431 27.0525ZM14.2102 26.6825H12.5382V26.7081L12.5389 26.7337L14.2102 26.6825ZM14.1988 18.5393H12.5267L12.5268 18.5516L14.1988 18.5393ZM14.7917 17.7564L15.1727 19.3844L15.1757 19.3837L14.7917 17.7564ZM22.3563 15.9291L22.0703 14.2817L22.0224 14.29L21.9751 14.3011L22.3563 15.9291ZM22.77 15.9475L22.3388 17.563L22.3388 17.563L22.77 15.9475ZM23.1378 16.1377L24.3381 14.9736L24.2756 14.9093L24.2067 14.852L23.1378 16.1377ZM29.9952 23.2809L28.791 24.4409L28.7912 24.4411L29.9952 23.2809ZM30.2768 23.866L28.6188 24.0829V24.0829L30.2768 23.866ZM30.1553 24.5038L31.6146 25.3201L31.6173 25.3151L30.1553 24.5038ZM17.5361 32.9971L17.3595 31.3344L17.3578 31.3345L17.5361 32.9971ZM1.26532 23.4495L2.79941 22.7844L2.79929 22.7841L1.26532 23.4495ZM5.98556 28.4815L5.86878 30.1494L5.86919 30.1495L5.98556 28.4815ZM2.13009 21.0164C2.21964 21.2383 2.25292 21.4788 2.22699 21.7166L-1.09742 21.3541C-1.13128 21.6645 -1.08783 21.9785 -0.970944 22.2681L2.13009 21.0164ZM2.22699 21.7166C2.20105 21.9545 2.1167 22.1822 1.98143 22.3795L-0.776899 20.4888C-0.95346 20.7464 -1.06357 21.0437 -1.09742 21.3541L2.22699 21.7166ZM1.98144 22.3795C1.84615 22.5769 1.66417 22.7377 1.45177 22.8476L-0.085521 19.8778C-0.362788 20.0213 -0.600325 20.2312 -0.776913 20.4888L1.98144 22.3795ZM1.45173 22.8476C1.23931 22.9576 1.00295 23.0133 0.763703 23.0098L0.812606 19.6661C0.500328 19.6615 0.191807 19.7343 -0.0854865 19.8778L1.45173 22.8476ZM0.788155 23.01H3.76258V19.6659H0.788155V23.01ZM3.76258 23.01C4.5854 23.01 5.21167 22.9834 5.89928 23.0154L6.05466 19.6748C5.26792 19.6383 4.41697 19.6659 3.76258 19.6659V23.01ZM5.90125 23.0154C6.48379 23.0419 7.38319 22.887 7.89831 22.0085C8.09521 21.6727 8.15634 21.3473 8.18089 21.1515C8.20545 20.9556 8.20585 20.7701 8.20619 20.6769L4.86209 20.6646C4.86172 20.7658 4.85908 20.7648 4.86274 20.7355C4.8664 20.7063 4.88878 20.5298 5.01353 20.317C5.16123 20.0651 5.39092 19.8662 5.65462 19.7579C5.87867 19.6659 6.04187 19.6743 6.05269 19.6748L5.90125 23.0154ZM8.20619 20.6769C8.20662 20.5609 8.23949 19.8926 7.8677 19.2991C7.35073 18.4739 6.49438 18.32 5.94272 18.3289L5.99694 21.6726C5.9905 21.6727 5.84603 21.6763 5.64419 21.5931C5.40861 21.4961 5.18624 21.3179 5.03379 21.0745C4.90115 20.8628 4.87188 20.6816 4.86528 20.6348C4.85893 20.5899 4.8624 20.5793 4.86209 20.6646L8.20619 20.6769ZM5.94286 18.3289C4.37202 18.3542 2.7996 18.3388 1.19437 18.3287L1.17341 21.6728C2.75976 21.6827 4.37891 21.6987 5.99679 21.6726L5.94286 18.3289ZM1.22421 18.3292C1.50627 18.336 1.78021 18.4248 2.01258 18.5848L0.116292 21.3393C0.419076 21.5477 0.776038 21.6635 1.14356 21.6723L1.22421 18.3292ZM2.01258 18.5848C2.24496 18.7448 2.4257 18.969 2.53272 19.23L-0.561472 20.4985C-0.422025 20.8387 -0.18651 21.1308 0.116292 21.3393L2.01258 18.5848ZM2.53273 19.23C2.63974 19.491 2.66839 19.7776 2.61518 20.0547L-0.668921 19.4239C-0.738258 19.785 -0.700916 20.1584 -0.561477 20.4985L2.53273 19.23ZM2.61518 20.0547C2.56198 20.3317 2.42921 20.5873 2.23309 20.7901L-0.171046 18.4656C-0.426592 18.7299 -0.599589 19.0629 -0.668921 19.4239L2.61518 20.0547ZM2.24286 20.7799L9.81464 12.8153L7.39097 10.5112L-0.180813 18.4758L2.24286 20.7799ZM9.81401 12.8159C9.61458 13.0255 9.35702 13.1705 9.07452 13.2325L8.35855 9.96587C7.98914 10.0468 7.65237 10.2365 7.39161 10.5105L9.81401 12.8159ZM9.07451 13.2325C8.792 13.2944 8.4974 13.2703 8.22863 13.1634L9.46461 10.0561C9.11318 9.91632 8.72797 9.8849 8.35855 9.96587L9.07451 13.2325ZM8.22861 13.1634C7.95985 13.0565 7.72924 12.8716 7.56643 12.6326L10.3305 10.7502C10.1176 10.4376 9.81605 10.1959 9.46462 10.0561L8.22861 13.1634ZM7.56643 12.6326C7.40363 12.3935 7.31608 12.1112 7.31506 11.822L10.6592 11.8102C10.6578 11.432 10.5434 11.0628 10.3305 10.7502L7.56643 12.6326ZM7.31505 11.8161V26.9968H10.6592V11.8161H7.31505ZM7.31505 26.9969C7.31505 26.8055 7.35289 26.6161 7.42636 26.4395L10.5139 27.7242C10.6098 27.4937 10.6592 27.2465 10.6592 26.9967L7.31505 26.9969ZM7.42638 26.4395C7.49984 26.2629 7.60751 26.1026 7.74325 25.9677L10.1002 28.34C10.2774 28.164 10.418 27.9547 10.5139 27.7242L7.42638 26.4395ZM7.74323 25.9678C7.87895 25.8329 8.03999 25.7263 8.21706 25.6539L9.48179 28.7497C9.71292 28.6552 9.92312 28.516 10.1003 28.34L7.74323 25.9678ZM8.21699 25.6539C8.39403 25.5816 8.58369 25.545 8.77506 25.5462L8.75343 28.8903C9.0032 28.8919 9.25076 28.8441 9.48185 28.7496L8.21699 25.6539ZM8.76425 25.5462H6.00126V28.8903H8.76425V25.5462ZM6.00129 25.5462C5.50085 25.5462 5.02069 25.7441 4.66564 26.0969L7.0227 28.4691C6.75116 28.7389 6.38394 28.8903 6.00123 28.8903L6.00129 25.5462ZM4.66565 26.0969C4.31063 26.4496 4.10957 26.9285 4.10636 27.429L7.45042 27.4504C7.44796 27.8331 7.2942 28.1994 7.02269 28.4691L4.66565 26.0969ZM4.10633 27.4397V28.2597H7.45045V27.4397H4.10633ZM4.10634 28.2538C4.10466 28.7297 4.28221 29.1887 4.60365 29.5396L7.06944 27.2806C7.3157 27.5494 7.45172 27.9011 7.45044 28.2656L4.10634 28.2538ZM4.60365 29.5396C4.92509 29.8904 5.36686 30.1074 5.84108 30.1473L6.12144 26.815C6.48474 26.8455 6.82319 27.0118 7.06944 27.2806L4.60365 29.5396ZM6.53271 30.1789H17.0332V26.8348H6.53271V30.1789ZM17.0332 30.1789C17.2619 30.1789 17.5757 30.1785 17.8599 30.1378C18.122 30.1003 18.7273 29.9848 19.1928 29.448C19.6709 28.8966 19.6901 28.2653 19.6796 27.9708C19.6685 27.6627 19.6049 27.3392 19.5531 27.0904L16.2791 27.7718C16.3338 28.0345 16.338 28.1012 16.3376 28.0906C16.337 28.0747 16.3336 27.9737 16.3685 27.829C16.4071 27.669 16.4924 27.4577 16.6662 27.2572C16.8383 27.0587 17.0293 26.9492 17.1663 26.8923C17.291 26.8404 17.3795 26.8284 17.3861 26.8274C17.3963 26.826 17.3775 26.8291 17.3082 26.8316C17.2412 26.8339 17.1546 26.8348 17.0332 26.8348V30.1789ZM19.5548 27.0989C19.4683 26.6722 19.2375 26.2883 18.9013 26.0118L16.7772 28.5947C16.5201 28.3832 16.3435 28.0897 16.2774 27.7633L19.5548 27.0989ZM18.9013 26.0118C18.5651 25.7353 18.1438 25.583 17.7085 25.5805L17.6894 28.9246C17.3565 28.9227 17.0343 28.8062 16.7772 28.5947L18.9013 26.0118ZM17.699 25.5805H14.4631V28.9246H17.699V25.5805ZM14.466 25.5805C14.826 25.5811 15.1729 25.7156 15.4393 25.9577L13.1898 28.4322C13.5374 28.7482 13.9902 28.9238 14.4602 28.9246L14.466 25.5805ZM15.4393 25.9577C15.7056 26.1999 15.8725 26.5324 15.9073 26.8907L12.5789 27.2143C12.6243 27.682 12.8421 28.1161 13.1898 28.4321L15.4393 25.9577ZM15.8972 26.8084C15.8886 26.7497 15.8833 26.6906 15.8815 26.6313L12.5389 26.7337C12.5447 26.9221 12.5614 27.1101 12.5889 27.2967L15.8972 26.8084ZM15.8823 26.6825C15.8823 23.9751 15.8909 21.2495 15.8708 18.5269L12.5268 18.5516C12.5467 21.2578 12.5382 23.961 12.5382 26.6825H15.8823ZM15.8708 18.5393C15.8708 18.4015 15.9033 18.6773 15.6773 18.9921C15.4253 19.3432 15.1102 19.3991 15.1727 19.3844L14.4106 16.1283C14.0032 16.2237 13.3915 16.4417 12.9606 17.0421C12.5557 17.6062 12.5267 18.2184 12.5267 18.5393H15.8708ZM15.1757 19.3837C17.8246 18.7586 20.127 18.1684 22.7375 17.5572L21.9751 14.3011C19.5339 14.8727 16.8075 15.5626 14.4076 16.129L15.1757 19.3837ZM22.6424 17.5765C22.5414 17.5941 22.4378 17.5895 22.3388 17.563L23.2012 14.332C22.8323 14.2336 22.4464 14.2164 22.0703 14.2817L22.6424 17.5765ZM22.3388 17.563C22.2397 17.5366 22.1476 17.489 22.0688 17.4235L24.2067 14.852C23.9131 14.6079 23.57 14.4305 23.2012 14.332L22.3388 17.563ZM21.9375 17.3018C24.2388 19.6746 26.4868 22.0488 28.791 24.4409L31.1995 22.1209C28.9321 19.7671 26.6341 17.341 24.3381 14.9736L21.9375 17.3018ZM28.7912 24.4411C28.6969 24.3432 28.6365 24.2177 28.6188 24.0829L31.9347 23.6491C31.8595 23.0741 31.6017 22.5384 31.1993 22.1207L28.7912 24.4411ZM28.6188 24.0829C28.6012 23.9482 28.6273 23.8113 28.6932 23.6925L31.6173 25.3151C31.8987 24.8081 32.0099 24.2241 31.9347 23.6491L28.6188 24.0829ZM28.696 23.6876C26.1748 28.195 22.4858 30.7899 17.3595 31.3344L17.7127 34.6598C23.9926 33.9928 28.6012 30.7074 31.6145 25.3201L28.696 23.6876ZM17.3578 31.3345C10.945 32.0221 5.20965 28.3437 2.79941 22.7844L-0.268768 24.1146C2.68981 30.9387 9.76369 35.5121 17.7143 34.6596L17.3578 31.3345ZM2.79929 22.7841C2.58579 22.2919 2.42051 21.8033 2.14876 21.0648L-0.989616 22.2197C-0.755624 22.8556 -0.532313 23.507 -0.268647 24.1149L2.79929 22.7841ZM5.86448 30.1491L5.86878 30.1494L6.10234 26.8135L6.09804 26.8132L5.86448 30.1491ZM5.86919 30.1495C6.04243 30.1615 6.28192 30.1789 6.53271 30.1789V26.8348C6.41778 26.8348 6.29437 26.8269 6.10194 26.8134L5.86919 30.1495Z" fill="#2E2E2E" mask="url(#path-3-inside-2_504_5113)"/>
<mask id="path-5-inside-3_504_5113" fill="white">
<path d="M24.2017 15.4538C24.2122 15.4829 24.2287 15.5094 24.2501 15.5317L30.689 22.2877C30.7149 22.3145 30.7471 22.3343 30.7827 22.3455C30.8182 22.3567 30.856 22.3588 30.8926 22.3517C30.9292 22.3446 30.9634 22.3285 30.9922 22.3049C31.021 22.2812 31.0435 22.2508 31.0575 22.2163C32.9248 17.6247 32.189 10.5072 27.2974 5.62408C24.8541 3.164 21.6767 1.56583 18.245 1.07099C14.8133 0.576143 11.3138 1.2115 8.27504 2.8811C1.76616 6.45127 -0.606804 13.4673 0.128945 18.3775C0.135649 18.4216 0.155381 18.4626 0.185599 18.4953C0.215816 18.5279 0.255134 18.5508 0.298483 18.561C0.341833 18.5711 0.387227 18.5681 0.428816 18.5522C0.470405 18.5363 0.506281 18.5083 0.531821 18.4718C0.594357 18.3784 0.663589 18.2896 0.738974 18.2061C4.91346 13.804 9.10318 9.41331 13.3081 5.03406C13.54 4.77308 13.8352 4.57627 14.1653 4.4626C15.704 4.0483 17.2569 3.68971 18.8041 3.30969C20.5065 2.88798 22.3021 3.06244 23.8915 3.804C28.1303 5.69837 29.046 10.8429 25.7016 14.0616C25.2454 14.467 24.7686 14.8485 24.2729 15.2045C24.2487 15.2236 24.2287 15.2476 24.2142 15.2749C24.1998 15.3022 24.1912 15.3322 24.1891 15.3631C24.1869 15.3939 24.1912 15.4248 24.2017 15.4538Z"/>
</mask>
<path d="M24.2501 15.5317L25.4605 14.3781L25.4573 14.3748L24.2501 15.5317ZM24.1891 15.3631L25.8571 15.4796L25.8571 15.4795L24.1891 15.3631ZM24.2729 15.2045L23.2974 13.8466L23.2673 13.8682L23.2382 13.8911L24.2729 15.2045ZM25.7016 14.0616L26.8123 15.3115L26.8371 15.2894L26.861 15.2664L25.7016 14.0616ZM23.8915 3.804L23.1845 5.31925L23.1968 5.325L23.2093 5.33054L23.8915 3.804ZM18.8041 3.30969L19.2029 4.93349L19.2061 4.9327L18.8041 3.30969ZM14.1653 4.4626L13.7306 2.84805L13.6752 2.86297L13.6209 2.88166L14.1653 4.4626ZM13.3081 5.03406L14.5142 6.19214L14.5366 6.16882L14.5581 6.14466L13.3081 5.03406ZM0.738974 18.2061L-0.474305 17.0556L-0.488236 17.0703L-0.501808 17.0853L0.738974 18.2061ZM0.531821 18.4718L1.90142 19.431L1.91162 19.4164L1.92151 19.4016L0.531821 18.4718ZM0.428816 18.5522L1.0256 20.1141H1.0256L0.428816 18.5522ZM0.298483 18.561L-0.0826056 20.189L-0.0825374 20.1891L0.298483 18.561ZM0.185599 18.4953L-1.04235 19.6301H-1.04235L0.185599 18.4953ZM0.128945 18.3775L-1.52466 18.6253L-1.52405 18.6293L0.128945 18.3775ZM8.27504 2.8811L9.07916 4.34711L9.08021 4.34653L8.27504 2.8811ZM18.245 1.07099L18.0063 2.72593L18.245 1.07099ZM27.2974 5.62408L26.111 6.80235L26.1161 6.80745L27.2974 5.62408ZM31.0575 22.2163L32.6055 22.8485L32.6064 22.8462L31.0575 22.2163ZM30.9922 22.3049L29.9314 21.0124L29.9314 21.0124L30.9922 22.3049ZM30.689 22.2877L29.4786 23.4413L29.4839 23.4469L29.4892 23.4524L30.689 22.2877ZM25.4573 14.3748C25.5974 14.5209 25.7052 14.6947 25.7741 14.885L22.6294 16.0227C22.7193 16.271 22.8601 16.4978 23.0429 16.6886L25.4573 14.3748ZM25.7741 14.885C25.8429 15.0752 25.8712 15.2777 25.8571 15.4796L22.5211 15.2465C22.5027 15.51 22.5396 15.7744 22.6294 16.0227L25.7741 14.885ZM25.8571 15.4795C25.843 15.6815 25.7868 15.8781 25.6922 16.0569L22.7363 14.493C22.6128 14.7263 22.5395 14.983 22.5211 15.2466L25.8571 15.4795ZM25.6922 16.0569C25.5976 16.2357 25.4666 16.3928 25.3076 16.518L23.2382 13.8911C23.0308 14.0545 22.8598 14.2595 22.7363 14.493L25.6922 16.0569ZM25.2485 16.5625C25.791 16.1728 26.3129 15.7552 26.8123 15.3115L24.5909 12.8117C24.1779 13.1788 23.7461 13.5242 23.2974 13.8466L25.2485 16.5625ZM26.861 15.2664C31.066 11.2195 29.887 4.65203 24.5737 2.27745L23.2093 5.33054C26.3736 6.74472 27.026 10.4663 24.5421 12.8569L26.861 15.2664ZM24.5985 2.28874C22.6626 1.38553 20.4756 1.17304 18.4021 1.68668L19.2061 4.9327C20.5375 4.60291 21.9416 4.73934 23.1845 5.31925L24.5985 2.28874ZM18.4053 1.68589C16.8884 2.05846 15.2929 2.42736 13.7306 2.84805L14.6001 6.07715C16.115 5.66923 17.6254 5.32095 19.2029 4.93349L18.4053 1.68589ZM13.6209 2.88166C13.0191 3.08888 12.4809 3.44768 12.0582 3.92345L14.5581 6.14466C14.5991 6.09848 14.6513 6.06366 14.7098 6.04355L13.6209 2.88166ZM12.1021 3.87598C7.89469 8.25773 3.70257 12.6509 -0.474305 17.0556L1.95225 19.3566C6.12434 14.9571 10.3117 10.5689 14.5142 6.19214L12.1021 3.87598ZM-0.501808 17.0853C-0.631386 17.2287 -0.750384 17.3814 -0.85787 17.542L1.92151 19.4016C1.9391 19.3754 1.95856 19.3504 1.97975 19.3269L-0.501808 17.0853ZM-0.837775 17.5127C-0.671684 17.2755 -0.438379 17.0936 -0.167965 16.9902L1.0256 20.1141C1.37919 19.979 1.68425 19.7411 1.90142 19.431L-0.837775 17.5127ZM-0.167965 16.9902C0.102446 16.8869 0.397617 16.867 0.679504 16.9329L-0.0825374 20.1891C0.286049 20.2753 0.672008 20.2492 1.0256 20.1141L-0.167965 16.9902ZM0.679572 16.9329C0.961441 16.9989 1.21708 17.1478 1.41355 17.3604L-1.04235 19.6301C-0.785446 19.9081 -0.451174 20.1028 -0.0826056 20.189L0.679572 16.9329ZM1.41355 17.3604C1.61002 17.573 1.73834 17.8396 1.78194 18.1258L-1.52405 18.6293C-1.46705 19.0036 -1.29926 19.3521 -1.04235 19.6301L1.41355 17.3604ZM1.78255 18.1298C1.14116 13.8493 3.23856 7.55072 9.07916 4.34711L7.47093 1.41509C0.293764 5.35182 -2.35477 13.0853 -1.52466 18.6253L1.78255 18.1298ZM9.08021 4.34653C11.8008 2.85174 14.9339 2.28289 18.0063 2.72593L18.4836 -0.583956C14.6927 -1.13061 10.8267 -0.428727 7.46988 1.41566L9.08021 4.34653ZM18.0063 2.72593C21.0788 3.16897 23.9235 4.59982 26.111 6.80234L28.4838 4.44583C25.7847 1.72819 22.2746 -0.0373039 18.4836 -0.583956L18.0063 2.72593ZM26.1161 6.80745C30.5078 11.1915 31.1353 17.5865 29.5087 21.5864L32.6064 22.8462C34.7143 17.6628 33.8702 9.82283 28.4787 4.44072L26.1161 6.80745ZM29.5096 21.5841C29.6005 21.3616 29.7454 21.165 29.9314 21.0124L32.0529 23.5974C32.2966 23.3975 32.4864 23.14 32.6055 22.8485L29.5096 21.5841ZM29.9314 21.0124C30.1173 20.8598 30.3383 20.7559 30.5744 20.7102L31.2107 23.9932C31.52 23.9333 31.8095 23.7972 32.053 23.5974L29.9314 21.0124ZM30.5744 20.7102C30.8106 20.6644 31.0544 20.6782 31.2839 20.7503L30.2815 23.9407C30.582 24.0351 30.9014 24.0532 31.2107 23.9932L30.5744 20.7102ZM31.2839 20.7503C31.5133 20.8224 31.7212 20.9505 31.8887 21.1231L29.4892 23.4524C29.7087 23.6784 29.981 23.8462 30.2815 23.9407L31.2839 20.7503ZM31.8994 21.1342L25.4605 14.3781L23.0397 16.6853L29.4786 23.4413L31.8994 21.1342Z" fill="#2E2E2E" mask="url(#path-5-inside-3_504_5113)"/>
<path d="M16.1626 5.82619C18.6021 8.37924 21.0336 10.9426 23.4571 13.5162C25.0535 12.4717 25.939 11.153 25.8234 9.36585L25.8232 9.36372C25.7591 8.33123 25.4408 7.50636 24.9291 6.84899C24.4137 6.18682 23.6682 5.65144 22.6875 5.25952L16.1626 5.82619ZM16.1626 5.82619C16.9592 5.63886 17.7572 5.448 18.5391 5.22389L18.5395 5.22376C20.0018 4.80368 21.3705 4.73375 22.6873 5.25942L16.1626 5.82619Z" stroke="#2E2E2E" stroke-width="1.67206"/>
<path d="M11.5094 9.88726C11.7066 9.68409 11.9111 9.48818 12.1219 9.29475C12.1216 10.4004 12.121 11.5063 12.1203 12.6124C12.1176 17.2013 12.1149 21.7927 12.1364 26.3825C12.1364 26.4046 12.1361 26.4253 12.1356 26.4446C12.1321 26.4442 12.1286 26.4439 12.1251 26.4435L12.1102 26.4419L12.0952 26.4409C11.7762 26.4191 11.4565 26.4088 11.1369 26.41C11.1369 25.3357 11.1364 24.2616 11.1359 23.1877C11.134 19.0379 11.1321 14.8906 11.1567 10.7437C11.1807 10.4281 11.3042 10.1282 11.5094 9.88726Z" stroke="#2E2E2E" stroke-width="1.67206"/>
<path d="M21.7824 15.0072L21.6297 14.8495L21.7824 15.0072ZM21.7824 15.0072L21.6297 14.8495L21.6293 14.8476L21.6292 14.8475L21.6304 14.8464L21.8441 14.795C21.8531 14.8327 21.8522 14.8721 21.8414 14.9093C21.8306 14.9465 21.8102 14.9803 21.7824 15.0072ZM15.0997 15.8316V8.88942L20.4547 14.5057L15.0997 15.8316ZM14.2864 16.7131L14.4849 16.6159H14.4849L14.2864 16.7131ZM21.6304 14.8464L21.7897 14.6944L21.6304 14.8464Z" stroke="#2E2E2E" stroke-width="1.67206"/>
</svg>
